<svg width="180" height="180" viewBox="0 0 180 180" fill="none" xmlns="http://www.w3.org/2000/svg">
<path d="M123.448 61.2128L123.408 60.8277L122.783 60.8811L122.823 61.2659L123.448 61.2128ZM127.648 71.3018L127.662 71.5142L128.101 71.4745C128.087 71.3418 128.14 71.1294 128.233 70.864L128.193 70.4789C128.007 70.4922 127.821 70.771 127.648 71.3018ZM111.257 84.0061C111.23 83.6477 110.114 82.254 107.907 79.7979C107.867 79.3468 108.625 78.6696 110.18 77.7803L114.62 73.9172C115.617 72.6558 116.202 70.6116 116.375 67.7707L116.322 67.1202C116.149 65.1557 114.727 63.5759 112.028 62.3678C110.433 61.2925 107.561 60.695 103.413 60.589C99.9836 60.8811 95.5036 62.1021 89.9866 64.2661C88.471 65.3547 86.7431 66.4434 84.8021 67.5317L84.8284 67.8638C84.9483 67.8504 85.1343 67.7841 85.347 67.638C85.5731 67.6114 85.7059 67.7177 85.7193 67.9301L86.0515 67.7574L86.2111 67.7441L86.2245 67.8901C86.2379 68.0628 85.0411 69.0054 82.6217 70.6913L82.808 71.0364L82.6484 71.0497L82.2494 70.9037C82.2627 71.023 82.0901 71.1027 81.7575 71.1294L81.7709 71.2754L82.1566 71.7532C82.037 71.7666 81.8507 71.7136 81.5983 71.6205C81.0397 71.6735 80.4947 71.9656 79.9498 72.5231L80.1759 71.5408C80.9866 68.0495 81.5449 64.9563 81.8373 62.2748L81.7976 62.1021C81.2393 61.7437 80.6941 61.2392 80.1889 60.602C80.2022 60.1905 80.2022 59.9518 80.1889 59.8985L80.1491 59.7524L79.9895 59.7924C78.2349 62.4209 74.8581 66.9078 69.8463 73.2533C66.0311 77.767 64.0634 80.276 63.9439 80.7805C62.3886 82.3867 61.644 83.3559 61.7238 83.6877C61.3117 83.9531 61.1388 84.2185 61.2052 84.5106C61.0857 84.5373 61.0059 84.4976 60.9791 84.3779C60.3147 85.4532 59.3307 86.1434 58.0148 86.4488L56.6321 86.7676C56.4461 86.8073 56.3529 86.94 56.3663 87.1657L56.406 87.3384L56.9246 87.2187L56.9647 87.3648L55.7947 87.8162L53.7208 88.294L52.6306 88.3604C52.471 88.5198 53.4947 88.3474 53.0961 88.4401L51.7401 88.7588C50.9157 88.9446 50.4639 88.8782 50.3841 88.5464L50.2245 88.5861C50.2512 88.7322 50.2642 88.8385 50.2379 88.9312L50.158 88.5995L49.0679 88.8515C48.988 88.3474 47.5125 86.5152 44.6543 83.3559C44.6012 82.7451 45.6113 81.8555 47.6721 80.7008L53.4947 75.5897C54.7976 73.9172 55.5686 71.2354 55.8214 67.545L55.7416 66.6821C55.5155 64.0803 53.6276 61.9827 50.0782 60.3633C47.9777 58.9429 44.2022 58.186 38.7519 58.0666C34.2319 58.4517 28.3292 60.0578 21.0708 62.859C19.0767 64.3057 16.8035 65.7395 14.2512 67.1599L14.2909 67.6114C14.4639 67.598 14.6896 67.5053 14.9687 67.346C15.2612 67.3193 15.4208 67.452 15.4476 67.7177L15.8993 67.4653L16.1254 67.452L16.1387 67.6644C16.1521 67.8768 14.5701 69.1115 11.3663 71.3681L11.6187 71.7666L11.393 71.7799L10.9008 71.6072C10.9142 71.7399 10.6881 71.8329 10.223 71.8726L10.2494 72.1117L10.7813 72.6958C10.6087 72.7092 10.3692 72.6558 10.0634 72.5498C9.02663 72.6428 8.01624 73.386 7.01921 74.7935L7.27163 75.1916C8.13577 74.395 8.64096 73.9969 8.78721 73.9836L8.8403 74.6341C8.69405 74.6474 8.468 74.7401 8.16249 74.8995L8.70741 75.7227C9.73682 74.6115 10.9027 73.6346 12.1773 72.8152C12.8021 72.9746 13.1343 73.1736 13.1476 73.386L13.6261 73.3464C17.056 70.8106 20.4461 68.9788 23.8095 67.8504L23.8492 68.3016C23.2245 69.2308 22.7991 69.709 22.573 69.7353C22.5998 70.0541 22.7059 70.3328 22.9053 70.5719C22.9587 71.1427 21.4298 74.9925 18.3321 82.1079C11.2998 98.6487 5.3971 110.888 0.598267 118.801C0.611274 118.96 0.704439 119.172 0.877407 119.438C2.06042 119.159 2.80502 118.867 3.12389 118.588L3.37667 118.561L3.41639 119.013L3.85514 118.973L4.30725 118.721C4.32061 118.854 4.46686 118.92 4.77237 118.893L4.81245 119.345C4.85217 119.783 4.59975 120.446 4.06784 121.363C3.58936 121.907 3.07081 123.048 2.52588 124.788L2.53889 125L2.97764 124.96C4.89225 122.823 6.34104 120.725 7.33807 118.681C12.9216 117.048 17.1758 115.442 20.1269 113.862C23.0916 113.61 25.3514 112.826 26.8937 111.539L26.867 111.3L25.7505 111.632L25.4977 111.658L25.471 111.419C27.6514 111.088 29.1536 110.61 29.991 109.946C34.2319 106.68 37.4357 104.37 39.6027 103.003C44.056 99.7374 46.9543 96.5511 48.2702 93.4582C48.5191 93.404 48.7674 93.3464 49.0148 93.2855C49.6395 93.2592 49.9851 93.2458 50.0782 93.2191C50.0515 93.0998 50.105 93.0334 50.2245 93.0067C51.2215 92.9007 50.743 93.0731 51.3811 92.927L53.056 92.5423C52.9498 92.5686 52.9097 92.622 52.9364 92.728L53.1889 92.5686C53.1358 92.5686 53.0961 92.5556 53.056 92.5423L53.3351 92.4759L53.2022 92.5556C53.3886 92.5819 53.5879 92.5686 53.8139 92.5156L53.9335 93.0067L46.3162 105.101L44.6276 107.211L43.8036 109.972L43.9632 109.933L44.7872 109.588L44.5214 110.663L44.6012 110.981L44.827 111.26C44.7208 111.287 44.681 111.353 44.7074 111.472L44.7475 111.645L45.0931 111.565C45.5983 111.127 45.811 110.729 45.7312 110.371C46.2761 110.463 46.635 110.503 46.8214 110.45L46.8611 110.623C46.5289 110.703 46.3559 110.968 46.3292 111.419L46.3693 111.592L46.5552 111.552C49.3206 108.539 56.1005 98.2239 61.5378 91.2279C61.3648 90.4713 64.1963 89.4224 70.0456 88.0683L70.2319 88.0286C70.4446 88.9446 69.9925 91.1615 68.8759 94.6796C68.1581 96.8035 67.8125 97.9719 67.8655 98.1576C66.935 100.985 66.4962 102.512 66.5493 102.751L64.4754 109.534C63.1328 113.013 62.1094 116.663 61.3915 120.513C61.5111 120.486 61.697 120.5 61.9632 120.566L62.2553 120.314C62.282 120.433 62.3618 120.473 62.4814 120.446L62.3618 119.955L63.2657 119.929C63.5315 119.863 63.7575 119.53 63.9439 118.92C63.9038 118.004 64.0901 117.513 64.5022 117.406C65.0604 115.23 65.406 114.141 65.5259 114.101C66.0441 111.937 66.4298 110.703 66.6822 110.397C67.4669 107.583 68.0382 106.136 68.4105 106.043L68.4903 106.388L67.9186 107.862C66.9216 112.282 65.9112 115.774 64.8878 118.336L65.1803 119.61L65.3663 119.57C67.8388 114.26 71.4016 103.747 76.0411 88.0286C76.1744 86.6479 76.8388 85.5726 78.0222 84.816L77.7561 84.5373L77.7163 84.3912C78.2482 84.2719 78.6202 84.0595 78.8329 83.7674C78.8065 83.6477 78.3411 83.4753 77.4372 83.2362L79.7505 73.333C80.2553 72.8816 80.5478 72.6428 80.641 72.6428L80.6811 73.1473C80.5612 73.1603 80.3752 73.2267 80.1625 73.3727L80.6013 73.9969C81.3986 73.134 82.2627 72.3904 83.2067 71.7666C83.6852 71.8993 83.9246 72.0587 83.9513 72.218L84.2969 72.1914C86.929 70.2665 89.5081 68.8857 92.0471 68.0495L92.0738 68.3812C91.6087 69.0848 91.2895 69.4432 91.1165 69.4566C91.1432 69.6956 91.2097 69.908 91.3292 70.0937C91.3693 70.5319 90.226 73.4524 87.8863 78.8686C82.5419 91.4136 78.0619 100.693 74.4194 106.72C74.4327 106.839 74.5126 106.999 74.6588 107.211C75.5493 106.999 76.1209 106.773 76.347 106.561L76.5066 106.547L76.5333 106.879L76.9053 106.853L77.2379 106.68C77.2509 106.773 77.3708 106.813 77.5968 106.8L77.6232 107.158C77.6499 107.477 77.4639 107.981 77.0515 108.671C76.6662 109.083 76.2672 109.946 75.8418 111.26L75.8552 111.433L76.2007 111.406C77.6499 109.787 78.7531 108.193 79.5111 106.627C83.7516 105.379 86.9821 104.171 89.2156 102.976C91.4888 102.777 93.2037 102.193 94.3737 101.211L94.3604 101.038L93.4962 101.29L93.3102 101.304L93.2969 101.131C94.9454 100.892 96.102 100.521 96.7267 100.029C99.9439 97.5601 102.377 95.7945 104.025 94.7593C109.157 91.0288 111.549 87.4445 111.257 84.0061ZM110.38 84.2319L110.499 85.5726C110.34 85.9047 110.167 86.0771 110.007 86.0904L109.808 83.8071C110.18 83.9398 110.366 84.0725 110.38 84.2319ZM9.7178 73.4261L9.49175 73.439L9.45202 73.0276L10.3692 72.9479L10.3826 73.1603C10.2364 73.1736 10.0103 73.2533 9.7178 73.4261ZM5.23784 118.176C4.70592 117.938 4.22745 117.845 3.81542 117.884L3.76198 117.234C3.73561 116.982 3.88186 116.809 4.20073 116.743C4.49323 116.716 4.6662 116.929 4.69256 117.353C5.46389 116.411 5.88928 115.933 5.96909 115.92L6.46092 116.119C6.30132 117.447 5.88928 118.123 5.23784 118.176ZM53.1094 68.1689C52.8834 68.1955 52.4313 67.492 51.7798 66.0979L51.7401 65.6865C52.1655 65.6468 52.6042 66.337 53.0693 67.7574L53.1094 68.1689ZM52.471 63.2174L52.285 63.6556L45.7843 60.9474C50.118 61.0935 52.3514 61.85 52.471 63.2174ZM25.0192 86.7543L24.102 86.834L24.0619 86.4222L24.9791 86.3428L25.0192 86.7543ZM24.2746 72.6162L24.5007 72.6028L24.5537 73.2533C24.341 73.2667 24.0619 73.5851 23.7163 74.1959L23.6762 73.7445C24.0886 73.2533 24.3013 72.8816 24.2746 72.6162ZM22.347 77.1561L22.4268 78.019L22.2007 78.0324L22.1209 77.1695L22.347 77.1561ZM21.3366 78.7759L21.7753 78.7359C21.7356 79.4528 21.5363 79.8379 21.1773 79.8642L20.9513 79.8776C21.2304 79.3998 21.3633 79.028 21.3366 78.7759ZM20.579 81.0326L20.8314 81.0059L20.8448 81.2183L20.4327 81.9089L19.994 81.9485L19.9806 81.7361C20.4194 81.6965 20.6187 81.4707 20.579 81.0326ZM19.8344 83.0639L19.7015 84.1522L19.4754 84.1655L19.3826 83.0902L19.8344 83.0639ZM12.3767 104.238C12.0842 105.724 11.7649 106.481 11.4327 106.508L11.4194 106.295C11.3396 105.565 11.6588 104.875 12.3767 104.238ZM11.0073 107.198L11.0207 107.41C11.0471 107.702 10.9142 107.875 10.6217 107.888L10.6087 107.676C10.5819 107.424 10.7148 107.264 11.0073 107.198ZM10.6087 113.344L11.2998 113.278L11.3262 113.517C11.1536 113.53 10.9275 113.623 10.6484 113.782L10.2096 113.822C10.1829 113.597 10.3292 113.424 10.6083 113.344H10.6087ZM30.2835 107.278C26.4016 109.189 24.115 110.49 23.4372 111.167C19.2364 112.627 17.1491 113.53 17.1889 113.888C13.4535 115.362 10.994 116.451 9.81096 117.128C9.53182 117.154 9.1328 117.048 8.60124 116.809C8.53479 116.052 8.88038 115.442 9.61128 114.951C10.2627 114.897 10.8874 114.99 11.4858 115.243C12.1773 114.884 13.3871 114.486 15.102 114.061L15.0619 113.61L13.6796 113.729C13.8522 113.49 15.1814 112.867 17.6807 111.858L18.3722 111.791L18.3856 112.004C17.2022 112.11 16.5508 112.455 16.4045 113.079C16.4312 113.358 16.5908 113.477 16.8833 113.451C17.7739 112.893 18.2126 112.561 18.1992 112.468C19.8878 112.15 24.5537 109.707 32.1978 105.154L32.2378 105.565C32.2512 105.764 31.5998 106.322 30.2835 107.278ZM18.5582 111.127C19.6751 111.034 20.6321 110.583 21.4298 109.8C21.7486 109.773 21.9216 109.893 21.935 110.171C21.3897 110.225 20.3396 110.676 18.811 111.552L18.5849 111.565L18.5582 111.127ZM37.4754 96.6174L31.6128 101.251C27.2523 104.105 24.9127 105.538 24.5805 105.565C17.641 109.375 13.3206 111.353 11.6454 111.499L11.393 111.525C11.6057 110.743 14.6896 104.437 20.6721 92.5686C23.3043 92.3429 27.452 91.1219 33.102 88.8915L34.4843 88.7718C37.3425 88.5198 39.4828 89.0773 40.8923 90.405L40.9717 91.2676C39.9082 94.3211 38.7386 96.1 37.4754 96.6174ZM26.0162 90.1793L26.9602 90.0996L26.9732 90.312L26.0296 90.3916L26.0162 90.1793ZM39.2702 87.9356L39.9617 87.8692C40.5998 88.1747 40.932 88.4401 40.9587 88.6791L40.9717 88.8915C40.3603 88.9446 39.7887 88.6261 39.2702 87.9356ZM41.1447 77.2758C40.5333 78.0057 38.8581 79.2537 36.1194 81.0059C35.2156 81.0856 31.8522 82.3867 26.0296 84.9354C25.7385 84.8026 25.4178 84.7477 25.099 84.7764L25.0589 84.3646C24.9925 83.5283 25.3648 82.4797 26.1889 81.2053C26.641 78.8156 27.1328 77.4482 27.6781 77.1165L32.5303 66.2176C32.4769 65.5404 33.514 65.0226 35.641 64.6642L36.3321 64.5978L36.3856 65.222C38.4725 64.9032 39.7753 64.7175 40.2805 64.6775C44.1358 64.3458 46.1432 65.129 46.3028 67.0009L46.7416 66.9608L46.6484 65.8592L47.1269 65.8192C48.2568 66.4434 48.8685 67.1999 48.9483 68.0892C49.0014 68.7 48.6692 69.4566 47.9643 70.3595C47.6721 70.3858 47.4992 70.1734 47.4725 69.7486L46.994 69.7887L46.8878 71.116C44.9335 74.0366 43.511 75.5367 42.6335 75.6164C41.8359 76.7184 41.344 77.2625 41.1447 77.2758ZM44.1224 84.9091C43.7237 84.6433 43.4045 84.5239 43.1655 84.5373L43.112 83.8868L43.5508 83.8471L44.5214 84.4179C44.5612 84.723 44.4283 84.8824 44.1224 84.9091ZM47.2067 88.5594C47.6321 88.7322 47.8848 88.9179 47.9379 89.0906L47.7252 89.1436L47.7386 89.157C47.6985 89.157 47.6454 89.1703 47.6054 89.1836L47.2865 89.4357L47.2067 88.5594ZM47.4992 90.3916L47.4595 90.2189L48.0177 90.0862L48.0575 90.2589L47.4992 90.3916ZM48.8418 91.8918C49.4134 91.7987 49.6926 91.759 50.7561 91.52L50.7961 91.6927L48.7753 92.1572C48.8021 92.0641 48.8284 91.9714 48.8418 91.8918ZM50.8095 92.728C49.9587 92.8077 50.1447 92.7013 48.7887 93.0067L48.7486 92.8344L50.4372 92.2899L51.2482 92.1041L51.3277 92.4226C50.9687 92.5023 51.2349 92.5023 50.8095 92.728ZM52.6042 92.3032C52.4045 92.3562 52.2453 92.2635 52.1521 92.0378L52.6707 91.9181C52.8964 91.8651 53.0426 91.9581 53.0961 92.1838L52.6042 92.3032ZM57.4695 87.0727L57.4298 86.9003L58.2672 86.7013L58.347 87.0197L57.4695 87.0727ZM62.6677 118.907C62.7208 118.668 62.7341 118.495 62.7074 118.375L62.8937 118.336C63.1195 118.283 63.2523 118.362 63.3058 118.575L63.3455 118.747L62.6677 118.907ZM66.3102 88.4401L65.9379 88.3737C65.3396 88.6128 64.8344 88.7852 64.4223 88.8782L64.0768 88.9579C63.8774 89.0109 63.7178 88.9312 63.638 88.7188L66.0708 88.1613L66.8685 87.7896L67.1343 88.095C66.7486 88.1747 66.4695 88.294 66.3102 88.4401ZM68.1844 87.8426L68.1447 87.6702C68.2642 87.6435 68.4238 87.5508 68.5968 87.3781L70.3247 86.98L70.3648 87.1524C69.4476 87.3781 68.7163 87.6038 68.1844 87.8426ZM68.4505 84.3512C68.3307 84.3779 68.1714 84.4843 67.9717 84.6433C67.9454 84.5239 67.7059 84.5239 67.2538 84.6303C67.1744 84.2982 68.4506 83.8337 71.0961 83.2229L71.468 83.1432L71.5478 83.462C69.6866 84.0061 68.6499 84.3115 68.4505 84.3512ZM73.1035 79.3334C72.9172 81.444 72.1729 82.6391 70.8566 82.9441L70.8169 82.7718L69.6469 83.2229L69.1284 83.3426C68.8626 83.409 68.6232 83.3956 68.4105 83.3293L68.3043 82.8645C68.2642 82.6921 69.9528 80.3554 73.3826 75.8684L73.7813 75.9351C73.9275 76.5456 73.7015 77.674 73.1035 79.3334ZM81.3322 72.2974L81.1729 72.3107L81.1462 71.979L81.8373 71.9126L81.8507 72.085C81.7312 72.1117 81.5582 72.178 81.3322 72.2974ZM77.9424 106.295C77.5434 106.109 77.1844 106.03 76.8789 106.056L76.8388 105.552C76.8255 105.379 76.932 105.26 77.1581 105.193C77.3841 105.167 77.517 105.326 77.5434 105.671C78.115 104.941 78.4342 104.569 78.5007 104.569L78.8596 104.715C78.7267 105.724 78.4209 106.255 77.9424 106.295ZM114.288 68.3282C114.115 68.3416 113.783 67.8104 113.264 66.7351L113.238 66.4033C113.57 66.3767 113.916 66.8945 114.261 67.9565L114.288 68.3282ZM113.81 64.5315L113.65 64.8766L108.731 62.819C112.015 62.9253 113.716 63.4962 113.81 64.5315ZM92.9513 82.4133L92.2598 82.4797L92.2334 82.1476L92.9246 82.0946L92.9513 82.4133ZM92.3797 71.6735L92.5656 71.6602L92.6054 72.1647C92.4327 72.178 92.2201 72.4171 91.9673 72.8816L91.9409 72.5498C92.2468 72.1647 92.3927 71.8726 92.3797 71.6735ZM90.9305 75.1252L90.9836 75.7757L90.7976 75.7891L90.7442 75.1386L90.9305 75.1252ZM90.1462 76.3599L90.4918 76.3332C90.452 76.8907 90.3058 77.1828 90.053 77.2095L89.867 77.2225C90.0664 76.8511 90.1595 76.559 90.1462 76.3599ZM89.5879 78.0591L89.7475 78.0457L89.7605 78.2181L89.455 78.7493L89.1091 78.7759L89.0961 78.6032C89.455 78.5765 89.6143 78.3908 89.5879 78.0591ZM89.0296 79.5988L88.9097 80.4484L88.7501 80.4618L88.6837 79.6255L89.0296 79.5988ZM83.3529 95.7015C83.1269 96.8168 82.8878 97.3877 82.635 97.414L82.6217 97.268C82.582 96.7105 82.821 96.1797 83.3529 95.7015ZM82.3028 97.9452L82.3158 98.0912C82.3426 98.3299 82.2364 98.463 81.997 98.476L81.9836 98.3036C81.9702 98.1309 82.0768 98.0115 82.3028 97.9452ZM82.0103 102.618L82.5419 102.578L82.5552 102.751C82.4357 102.764 82.2494 102.83 82.0367 102.95L81.6911 102.976C81.6777 102.791 81.7843 102.671 82.0103 102.618ZM96.9394 98.0115C94.0148 99.4586 92.2731 100.441 91.7282 100.945C88.5374 102.06 86.9557 102.751 86.9821 103.03C84.1506 104.158 82.2895 104.968 81.412 105.485C81.1993 105.499 80.8934 105.419 80.4947 105.233C80.4417 104.662 80.7074 104.198 81.2657 103.853C81.7709 103.813 82.2494 103.879 82.6881 104.065C83.22 103.8 84.1373 103.507 85.4402 103.176L85.4134 102.844L84.3232 102.923C84.4565 102.738 85.4799 102.259 87.3811 101.49L87.9127 101.45L87.9261 101.596C87.0222 101.676 86.517 101.941 86.4105 102.419C86.4238 102.631 86.5567 102.738 86.7828 102.711C87.4476 102.273 87.7665 102.021 87.7665 101.941C89.0426 101.715 92.579 99.8567 98.3886 96.3787L98.4149 96.7105C98.4283 96.8565 97.9365 97.2813 96.9394 98.0115ZM88.0326 100.932C88.8964 100.852 89.6276 100.521 90.2393 99.9364C90.465 99.9097 90.5983 100.016 90.6113 100.229C90.2126 100.268 89.4283 100.6 88.2449 101.237L88.059 101.251L88.0326 100.932ZM102.416 89.9005L97.9895 93.4582C94.6792 95.6218 92.8849 96.7105 92.6054 96.7372C87.3411 99.631 84.0708 101.131 82.7813 101.237L82.5953 101.251C82.7546 100.653 85.1079 95.8609 89.6543 86.8603C91.635 86.6879 94.7724 85.7453 99.0797 84.0461L100.157 83.9531C102.323 83.7674 103.945 84.1922 105.009 85.2141L105.062 85.8647C104.251 88.148 103.374 89.4887 102.416 89.9005ZM93.7223 85.0151L94.4134 84.9487L94.4268 85.1215L93.7356 85.1878L93.7223 85.0151ZM103.786 83.3026L104.318 83.2629C104.81 83.5016 105.062 83.7144 105.075 83.8868L105.089 84.0328C104.623 84.0725 104.184 83.8337 103.786 83.3026ZM105.181 75.2182C104.716 75.7757 103.454 76.7313 101.393 78.0591C100.701 78.1254 98.1492 79.1077 93.7356 81.0193C93.5229 80.9396 93.2835 80.9132 93.0308 80.9266L93.0044 80.5945C92.9513 79.9573 93.2304 79.1607 93.8418 78.1918C94.1874 76.3599 94.5731 75.3376 94.9717 75.0985L98.6807 66.8148C98.641 66.3237 99.4253 65.9255 101.021 65.6201L101.552 65.5805L101.592 66.0849C103.161 65.8325 104.145 65.6865 104.543 65.6468C107.468 65.3944 108.997 65.9786 109.117 67.4123L109.462 67.3856L109.396 66.5891L109.742 66.5627C110.592 67.0272 111.044 67.585 111.098 68.2485C111.137 68.7267 110.898 69.3105 110.393 69.9877C110.167 70.0141 110.034 69.855 110.007 69.5099L109.662 69.5363L109.555 70.5319C108.08 72.7755 107.003 73.9305 106.325 73.9836C105.727 74.7935 105.354 75.2049 105.181 75.2182ZM106.737 80.7405L106.697 80.236L107.043 80.2097L107.787 80.6608C107.801 80.8732 107.694 80.9929 107.468 81.0193C107.149 80.8202 106.91 80.7272 106.737 80.7405ZM44.8537 112.986L44.5081 113.066L44.2156 113.318C44.2687 113.53 44.4016 113.61 44.6276 113.557C44.8537 113.504 44.9468 113.371 44.8937 113.159L44.8537 112.986ZM43.5378 110.371L43.5775 110.543C43.8036 110.49 43.8964 110.357 43.8433 110.145L43.8036 109.972C43.5909 110.026 43.4977 110.158 43.5378 110.371ZM52.8964 88.1347L53.2954 88.042L53.2156 87.6969L52.8169 87.7896L52.8964 88.1347ZM173.526 98.2506C169.484 99.1532 168.979 98.9938 168.128 99.0602L168.155 99.3923L168.527 99.3656L168.727 99.3522L168.674 99.3126L169.112 99.1399C173.114 98.7017 173.579 98.8611 173.539 98.4096L173.526 98.2506ZM151.764 101.131L151.79 101.463H151.843L151.817 101.131H151.764ZM149.264 92.3829L148.905 92.2635C148.613 93.0468 148.467 93.5112 148.48 93.6439L148.493 93.79C148.772 93.7766 149.025 93.2988 149.264 92.3829ZM174.35 98.1842L174.377 98.516L174.961 98.622L174.935 98.2903L174.35 98.1842ZM146.845 101.543L145.941 101.437L145.781 101.782L145.795 101.954L151.179 101.503L151.152 101.171L146.845 101.543ZM144.399 89.7678L144.386 89.5951L144.199 89.6084L143.867 89.8208L144.053 90.1392C144.306 90.1129 144.425 89.9932 144.399 89.7678ZM176.902 95.7415L177.155 95.7149C177.301 95.7015 177.368 95.5821 177.354 95.3698L177.208 95.051C176.291 95.1307 175.866 95.1707 175.121 95.5822L175.108 95.4098L174.004 95.5158C173.978 95.184 173.885 95.0113 173.739 95.0247L173.167 95.0777C172.502 95.1307 172.183 95.1044 171.851 95.3564C171.837 95.2371 171.798 95.184 171.731 95.184L171.093 95.2371L170.721 95.4495C170.707 95.3301 170.668 95.2767 170.601 95.2767L170.375 95.4761L170.362 95.3034L169.471 95.2371L169.258 95.2504L169.285 95.5822L169.737 95.7015L170.163 95.6752C170.309 95.7682 170.468 95.7945 170.654 95.7812L171.027 95.5955L171.04 95.7415C168.953 96.2594 168.966 96.1663 167.53 96.4054C167.371 96.299 167.251 96.246 167.171 96.2594L167.145 96.2857C166.985 96.2723 166.892 96.1663 166.879 95.9936L167.623 95.9009C167.676 95.9009 167.716 95.9539 168.128 96.0336C168.727 95.7415 168.753 95.6218 169.072 95.5955L169.046 95.2634C166.998 95.6618 167.823 95.3964 165.257 95.6218L165.137 95.6352L165.111 95.3034C168.408 94.9053 167.304 95.1307 168.434 94.8123C168.448 94.9316 168.487 94.9846 168.554 94.9846C168.675 94.861 168.834 94.7817 169.006 94.7593L169.232 94.7459C170.388 94.6529 170.774 94.8786 173.06 94.2414L173.074 94.3875L173.446 94.2014L173.792 94.1751C173.765 93.843 174.27 93.79 174.443 93.7766L174.416 93.4182C170.402 94.2281 169.351 94.0024 168.235 94.3211L168.222 94.1751C167.171 94.3608 167.131 94.2811 166.866 94.2944C166.786 94.3078 166.666 94.3741 166.533 94.5068C166.52 94.3875 166.48 94.3341 166.4 94.3341C166.36 94.3341 166.347 94.3475 166.334 94.3475L162.931 94.9049C162.917 94.8123 162.877 94.7593 162.798 94.7722C161.03 95.144 161.508 95.2104 159.142 95.4228C159.035 95.4361 158.889 95.4891 158.703 95.6088C158.69 95.5158 158.637 95.4628 158.517 95.4758L157.068 95.5955L156.098 95.8342C156.084 95.7415 156.031 95.6885 155.911 95.7015C155.366 95.8476 154.888 95.9406 154.502 95.9673H154.475C154.236 95.9936 154.595 95.9009 154.409 95.8212L154.117 95.9936C153.691 96.0336 153.917 95.9673 152.455 95.9803C149.889 96.299 150.168 96.3387 149.889 96.352L148.932 96.2857C148.945 96.3787 148.892 96.4451 148.786 96.4451C147.696 96.299 147.137 96.1263 147.124 95.9272C147.27 94.892 147.523 94.3608 147.882 94.3341L148.068 94.3211L147.908 94.6662L148.095 94.6529C148.44 94.4672 148.6 94.2944 148.586 94.1351L148.56 93.7766L148.214 93.8033L148.187 93.4715C148.161 93.2191 148.201 92.9934 148.294 92.8077L149.078 91.5467L149.105 91.8784L149.477 91.8517L149.451 91.52L149.238 91.2145C149.517 90.9758 149.73 90.8428 149.902 90.8298L149.889 90.6571L149.384 90.6971L149.344 90.1926C150.354 88.095 150.833 86.8736 150.807 86.5285L151.165 86.6746C151.392 86.6612 151.498 86.5285 151.484 86.2894L151.139 86.3161L151.125 86.1701C151.101 85.9277 151.147 85.6835 151.258 85.4666C151.804 84.8957 152.056 84.3249 152.003 83.7274C152.109 83.714 152.163 83.7674 152.176 83.8868C152.641 83.6214 153 82.9178 153.266 81.7495C154.09 80.2627 155.26 77.2892 156.789 72.8419C159.713 64.9829 159.594 64.1467 160.006 62.2882L159.66 62.3145C159.687 62.5536 159.634 62.7793 159.527 62.9917C159.288 62.8987 159.102 62.8456 158.969 62.859L158.956 62.7129C158.902 62.0357 159.182 61.2262 159.82 60.2702L159.979 60.2569L160.272 61.3986L160.617 61.3722C160.604 61.2925 160.697 60.8411 160.883 60.0048C160.87 59.8321 160.737 59.7261 160.471 59.7127L160.139 59.9251C160.112 59.6861 160.125 59.0622 160.165 58.0666L159.993 58.0799C159.7 57.7878 159.554 57.5488 159.54 57.3497L157.64 57.5354C157.626 57.4027 157.56 57.2037 157.427 56.9516C157.413 56.7789 157.839 56.6062 158.716 56.4338L159.102 56.5798L159.461 56.3674C159.474 56.4868 159.54 56.5398 159.673 56.5268L160.032 56.3144C160.046 56.4338 160.112 56.4868 160.245 56.4735L160.418 56.4605L160.391 56.0754C160.125 56.102 159.421 56.102 158.304 56.062L157.945 56.3011L157.932 56.0887C149.012 56.8186 143.947 57.2304 142.737 57.3497C142.578 57.3631 141.953 57.3497 140.849 57.323C140.863 57.4691 140.73 57.5488 140.464 57.5755L140.078 57.4027L138.775 57.7348C138.47 57.7612 137.951 57.7478 137.233 57.6685C137.034 57.8275 136.795 57.9206 136.502 57.9472C136.343 57.9602 138.403 57.8409 140.317 57.7082C140.118 57.8675 139.812 57.9602 139.387 58.0002C139.095 58.0269 138.842 57.9869 138.629 57.8675C138.337 58.0002 137.393 58.2126 135.811 58.5311L135.425 58.3854L129.204 59.341C128.964 59.2216 128.685 59.1816 128.366 59.2083C128.034 59.2349 127.475 59.3543 126.704 59.5667L123.7 60.8144L123.926 61.1862C124.072 61.1728 124.285 61.0935 124.537 60.9474L125.601 61.0401L125.468 62.0357C124.484 62.4739 123.913 63.1244 123.753 63.9476C122.278 64.5978 121.546 65.0626 121.546 65.3414L121.56 65.5141L121.786 65.5008L122.184 65.2884L122.65 65.8459L122.716 66.6157C122.743 66.8548 120.257 72.072 115.285 82.2673C110.978 92.0908 108.718 97.4674 108.505 98.4363C107.03 98.8478 106.178 99.4453 105.926 100.242C105.953 100.494 106.391 100.667 107.242 100.733L107.282 101.118L106.896 101.755L106.963 102.525C107.003 102.923 108.08 103.229 110.193 103.441C110.18 103.308 110.247 103.229 110.393 103.215C110.433 103.693 110.3 104.622 109.994 106.003L110.22 105.99C111.097 104.795 111.51 103.972 111.47 103.521L111.656 103.507C111.869 103.494 112.095 103.733 112.36 104.251C112.095 104.357 111.164 106.468 109.569 110.597L109.795 110.968L110.021 110.955C111.975 106.017 113.198 103.282 113.703 102.764C116.269 102.538 120.709 102.087 127.01 101.41L127.409 101.171C127.422 101.304 127.502 101.37 127.648 101.357L128.06 101.317L128.459 101.078C128.472 101.211 128.552 101.277 128.699 101.264L133.471 100.852C134.734 100.746 135.332 100.361 135.279 99.7107C135.266 99.5383 136.01 99.3389 137.513 99.1265C137.659 99.1132 137.872 99.1532 138.164 99.2462C138.151 99.1265 138.908 99.0071 140.424 98.8744C140.464 98.0779 140.716 97.6531 141.168 97.6134L141.128 97.2283C140.703 97.268 140.225 97.3743 139.666 97.5601C138.669 97.507 138.031 97.4273 137.765 97.3343C137.499 97.4804 137.3 97.5601 137.154 97.5734L133.83 97.6798L133.431 97.8922C133.418 97.7724 133.338 97.7194 133.192 97.7328L133.006 97.7461L132.58 97.9585C132.567 97.8388 132.222 97.7461 131.53 97.6531L131.105 97.9052L130.281 97.9715L130.267 97.7591C134.548 97.2946 136.662 96.7105 136.608 96.0203C136.888 95.9936 137.034 96.1263 137.06 96.4054L138.31 96.0866L138.27 95.7015L128.021 95.9803C128.034 96.1133 127.967 96.1927 127.821 96.206L126.572 96.1C126.252 96.1263 125.987 96.2193 125.774 96.3787L125.309 96.206C124.019 96.3124 123.062 96.4718 122.424 96.6708C121.546 96.6045 120.576 96.6174 119.499 96.7105L117.199 96.9095L116.136 96.7902C116.083 96.1133 117.399 92.781 120.111 86.8073C120.895 84.7893 121.613 83.5283 122.304 83.0505C122.451 83.0372 122.663 83.0902 122.956 83.2096L124.591 82.6521L125.428 82.7848C126.837 82.6654 128.472 82.2673 130.347 81.5767C130.812 81.5371 131.158 81.5638 131.41 81.6698L132.66 81.3777L136.383 81.0593C137.964 80.9266 139.679 80.5811 141.54 80.0103L141.501 79.6255C140.81 79.6919 140.451 79.5725 140.424 79.2934C140.384 78.7759 139.879 78.5636 138.908 78.6429L138.869 78.2581L139.892 77.966L142.578 77.7403L142.537 77.3555C142.431 77.3685 141.886 77.3555 140.876 77.3155L140.836 76.9041L141.873 76.811C142.152 76.7847 142.272 76.6516 142.245 76.3862C140.849 76.4263 140.145 76.3599 140.131 76.1738C130.4 76.6516 125.521 76.7447 125.495 76.4393C125.349 76.4526 125.149 76.5456 124.883 76.705L124.631 76.3066C127.21 70.8373 128.725 68.0762 129.164 68.0362C129.177 68.2485 129.071 68.5936 128.831 69.0585L128.845 69.2308L129.257 69.1912C130.281 66.7484 131.145 65.4874 131.863 65.4344C134.92 65.1686 131.437 64.9696 137.978 63.9476C138.244 64.067 138.43 64.12 138.563 64.1067C141.128 63.5892 144.704 63.0447 149.291 62.4872L149.264 62.1021L146.818 62.3278L146.792 61.9431C147.084 61.9164 147.323 61.8233 147.523 61.6643L147.536 61.8767C147.669 61.8634 147.855 61.7703 148.095 61.611C148.52 61.5713 148.839 61.611 149.065 61.7307C149.916 61.5049 150.607 61.3722 151.112 61.3189L152.641 61.1728C153.013 60.9341 153.186 60.7217 153.173 60.5226L153.16 60.3499C152.774 60.3896 152.335 60.3633 151.817 60.2702C151.804 60.0578 151.91 59.9118 152.163 59.8454L155.007 59.58L156.31 59.2479C156.323 59.394 156.39 59.4473 156.496 59.4473C156.629 59.434 156.815 59.341 157.055 59.1816C157.121 59.1949 157.201 59.1949 157.267 59.2083C157.095 59.5667 156.895 60.0845 156.696 60.7614L156.323 60.7881C156.297 60.5356 156.23 60.3103 156.111 60.1108L155.925 60.1242C152.468 69.7353 150.926 74.2093 147.736 81.5901C147.151 83.4753 146.659 84.5239 146.233 84.7497C146.247 84.9621 146.38 85.0681 146.606 85.0418C146.685 85.971 146.472 86.887 145.954 87.7896C144.478 92.0378 143.495 94.3608 142.99 94.7856L143.322 96.7902C143.335 97.0026 143.229 97.1219 143.003 97.1486L142.657 97.1753C142.604 96.6174 142.405 96.352 142.046 96.3921L141.86 96.4054C141.408 97.1089 141.062 97.9185 140.836 98.8611L141.181 98.8344C141.647 98.5293 141.86 98.1709 141.82 97.7591L142.511 97.6928L142.91 97.8388C142.591 98.3433 142.445 98.7417 142.471 99.0468L142.657 99.3656L142.205 100.428L142.219 100.6C142.617 100.56 143.056 100.693 143.521 100.972C143.84 100.945 144.186 100.799 144.572 100.547C144.97 100.507 146.459 100.494 149.025 100.494L150.314 100.056C151.883 100.042 152.136 100.082 153.492 99.9631L154.05 99.9097L154.343 99.7107L154.356 99.8834C155.778 99.7637 155.872 99.8567 156.988 99.9894L157.001 100.162L156.217 100.229L156.243 100.56C156.483 100.534 156.696 100.467 156.869 100.322C157.068 100.308 157.187 100.414 157.201 100.653C156.882 100.68 156.523 100.759 156.124 100.892L155.778 100.773C155.233 100.919 155.353 100.959 154.981 100.985L154.436 100.879C154.449 100.972 154.396 101.038 154.303 101.038C154.316 101.251 154.436 101.357 154.635 101.343L155.193 101.29L158.105 101.038L159.208 100.799C159.222 100.892 159.261 100.945 159.354 100.932L159.886 100.733L160.883 100.653C161.654 100.587 161.641 100.534 163.316 100.268C163.303 100.162 163.343 100.122 163.422 100.109L163.436 100.255C166.161 99.7904 166.334 99.7637 166.772 99.6176L166.812 99.6973C167.49 99.5383 167.105 99.578 167.291 99.4453C167.304 99.5646 167.344 99.6176 167.41 99.6176L167.889 99.578L167.863 99.2195L166.892 99.2062L166.879 99.1799C166.839 99.1929 166.812 99.1929 166.772 99.2062H166.64V99.2329C165.988 99.3656 165.975 99.2726 165.549 99.3126L163.117 99.4453L163.103 99.2726L164.459 99.0868L164.951 99.0468L165.23 98.8478L165.243 99.0205C167.158 98.8611 167.836 99.3389 176.69 97.454C177.168 97.414 177.128 97.0159 177.434 96.1927C177.272 96.2037 177.11 96.1669 176.969 96.0866C176.238 96.3654 175.852 96.2327 174.443 96.4584C174.323 96.4718 174.23 96.3654 174.19 96.153L174.177 96.0069L175.533 96.0466C175.786 96.0203 176.278 95.9803 177.009 95.5688C177.009 95.6885 176.743 95.7549 176.902 95.7415ZM111.443 96.7902L110.818 96.8432C110.792 96.5911 111.124 95.6352 111.815 94.0024L112.227 93.9627C112.241 94.3475 111.988 95.2901 111.443 96.7902ZM112.201 93.7636L112.187 93.5909C112.174 93.3785 112.307 93.2325 112.6 93.1661L112.613 93.3385C112.626 93.5909 112.493 93.7369 112.201 93.7636ZM120.51 100.175L120.523 100.348L119.486 100.441L119.472 100.268L120.51 100.175ZM119.26 100.069C119.273 100.282 118.954 100.521 118.263 100.759L116.987 100.667L116.575 100.706L116.535 100.322L119.26 100.069ZM127.662 61.4519L127.037 61.5049L127.024 61.2925C127.01 61.0801 127.13 60.9341 127.396 60.8677L127.622 60.8544L128.047 61.0268C128.06 61.2792 127.941 61.4252 127.662 61.4519ZM137.167 59.5934L137.366 59.58L137.393 59.9648L136.821 60.0182C136.808 59.8058 136.914 59.6597 137.167 59.5934ZM134.774 60.4296L133.83 60.3232L133.817 60.1509C135.053 60.0445 135.465 59.9118 136.223 59.6994C136.236 59.8454 136.369 59.8985 136.608 59.8721L136.635 60.2569L136.263 60.2969C135.97 60.3232 135.718 60.2836 135.505 60.1642C135.279 60.3103 135.04 60.4029 134.774 60.4296ZM135.957 63.868L135.944 63.6952L137.472 63.5492L137.486 63.7219L135.957 63.868ZM137.592 62.5402L137.579 62.3278L138.323 62.2615L138.337 62.4739L137.592 62.5402ZM137.765 59.9385L137.566 59.9518L137.739 59.54L139.44 59.381L139.454 59.5934C139.015 59.633 138.443 59.7524 137.765 59.9385ZM138.629 63.6022L138.602 63.2174L139.347 63.1511C139.6 63.1244 139.733 63.2438 139.746 63.5095L138.629 63.6022ZM143.136 57.4691L142.178 57.7348L142.006 57.7478C141.554 57.7878 140.969 57.7745 140.278 57.7082C141.514 57.6285 142.697 57.5354 143.136 57.4691ZM142.112 61.7173L142.125 61.8897L140.81 62.0094L140.796 61.8367L142.112 61.7173ZM144.266 62.7393C144.252 62.5802 144 62.4739 143.481 62.4209L142.165 62.7926L141.155 62.8323C140.929 62.6729 140.81 62.5669 140.796 62.4872L141.966 62.5536L144.598 62.1288L145.941 62.1818L145.954 62.3942C145.289 62.4605 144.731 62.5802 144.266 62.7393ZM157.812 59.2479C157.972 59.2613 158.078 59.2613 158.118 59.2613C158.583 58.8102 159.102 58.4517 159.7 58.1993C159.222 60.2969 158.477 61.85 157.454 62.859L156.709 62.4075C157.334 60.8277 157.706 59.7791 157.812 59.2479ZM155.526 63.1644L155.712 63.1511C155.459 63.6289 155.233 63.8809 155.047 63.8943L155.007 63.3898C155.127 63.3898 155.3 63.3101 155.526 63.1644ZM154.05 66.6821C154.409 65.2483 154.755 64.4388 155.074 64.2264L155.087 64.3988C154.901 65.7265 154.608 66.43 154.223 66.483L154.289 67.3193C153.97 67.7707 153.824 68.1158 153.837 68.3812L153.651 68.3946L153.545 67.2396C153.758 67.2133 153.931 67.0272 154.05 66.6821ZM153.478 68.5936C153.492 68.793 153.359 69.2575 153.093 69.9744L152.907 69.9877L152.867 69.4832C153.119 68.8991 153.332 68.607 153.478 68.5936ZM142.75 99.684L142.737 99.5383L143.083 99.5116L143.122 100.016C142.936 100.029 142.804 99.9231 142.75 99.684ZM158.078 100.082C158.065 99.9631 158.012 99.9097 157.892 99.9231L157.028 100.003L157.015 99.83H157.095L159.142 99.6577L159.155 99.83C158.557 99.8567 158.198 99.9498 158.078 100.082ZM157.055 99.6577C157.134 99.6973 157.095 99.7374 157.055 99.7637C157.015 99.7507 156.962 99.7107 157.055 99.6577ZM157.161 97.268L156.018 97.361L156.004 97.1883L157.041 97.0956L157.945 96.8699C157.959 96.9759 158.012 97.0159 158.131 97.0026C159.208 96.8168 159.102 96.7638 159.62 96.7238C159.793 96.7105 159.9 96.8168 159.913 97.0292L157.161 97.268ZM161.163 96.9229C160.524 96.8565 160.484 96.8035 160.033 96.8432L160.019 96.6971L161.043 96.6045L161.056 96.7505C160.95 96.7638 161.335 96.7902 161.163 96.9229ZM161.242 96.7372L161.229 96.5911L161.787 96.5381L161.801 96.6841L161.242 96.7372ZM162.478 96.6308L162.465 96.4847C162.558 96.4718 162.691 96.4054 162.864 96.2723C163.143 96.246 163.289 96.4317 163.316 96.6441L162.478 96.6308ZM164.06 96.4317L164.047 96.2594L164.725 96.206L164.739 96.3787L164.06 96.4317ZM165.004 96.352C164.991 96.153 165.071 96.0336 165.244 96.0069L165.47 96.299C165.457 96.206 165.496 96.153 165.576 96.1396L165.749 96.4584L165.004 96.352ZM154.968 100.68L154.941 100.348L154.834 100.361L154.861 100.693L154.968 100.68ZM178.325 94.6395C178.431 94.5732 178.484 94.5068 178.232 94.4672C178.112 94.5999 178.365 94.6395 178.099 94.6529L178.112 94.7722C178.139 94.7459 178.205 94.7059 178.258 94.6662L178.112 94.7856V94.7989L177.833 95.1574L178.391 94.9583H178.458L178.431 94.6262L178.325 94.6395ZM179.295 95.3964L179.189 95.4098L179.216 95.7415L180 95.6752C179.987 95.4628 179.468 95.3964 179.295 95.3964ZM178.086 94.8123L178.099 94.7989V94.7856C178.099 94.7856 178.086 94.7989 178.086 94.8123Z" fill="black"/>
<path d="M127.05 70.2397L127.064 70.4521L127.502 70.4125C127.489 70.2798 127.542 70.0674 127.635 69.8016L127.595 69.4169C127.409 69.4302 127.223 69.7089 127.05 70.2397ZM122.849 60.1508L122.81 59.7657L122.185 59.8187L122.225 60.2038L122.849 60.1508ZM110.659 82.9441C110.632 82.5857 109.516 81.1919 107.309 78.7359C107.269 78.2848 108.027 77.6076 109.582 76.7183L114.022 72.8552C115.019 71.5938 115.604 69.5496 115.777 66.7087L115.724 66.0582C115.551 64.0933 114.128 62.5139 111.43 61.3058C109.834 60.2305 106.963 59.633 102.816 59.5266C99.3857 59.8187 94.9054 61.0401 89.3887 63.204C87.8731 64.2927 86.1448 65.381 84.2038 66.4697L84.2305 66.8018C84.3501 66.7884 84.536 66.7221 84.7491 66.576C84.9748 66.5493 85.108 66.6557 85.121 66.8681L85.4536 66.6954L85.6129 66.6821L85.6262 66.8281C85.6396 67.0008 84.4432 67.9431 82.0238 69.6292L82.2097 69.9743L82.0501 69.9877L81.6515 69.8416C81.6648 69.961 81.4919 70.0407 81.1596 70.0674L81.173 70.2134L81.5583 70.6912C81.4388 70.7046 81.2528 70.6516 81 70.5585C80.4417 70.6115 79.8965 70.9036 79.3515 71.4611L79.5776 70.4788C80.3887 66.9875 80.9469 63.8942 81.2394 61.2128L81.1994 61.0401C80.6411 60.6816 80.0962 60.1772 79.591 59.54C79.6043 59.1285 79.6043 58.8895 79.591 58.8364L79.5509 58.6904L79.3916 58.7304C77.6366 61.3588 74.2599 65.8458 69.2483 72.1913C65.4328 76.705 63.4651 79.2137 63.3456 79.7182C61.7903 81.3246 61.0457 82.2936 61.1255 82.6257C60.7135 82.8911 60.5405 83.1565 60.6073 83.4486C60.4874 83.4753 60.4076 83.4352 60.3812 83.3159C59.7164 84.3912 58.7327 85.0814 57.4165 85.3868L56.0338 85.7052C55.8478 85.7453 55.7547 85.878 55.768 86.1037L55.8081 86.2761L56.3263 86.1567L56.3664 86.3027L55.1964 86.7542L53.1225 87.232L52.0327 87.2984C51.8731 87.4578 52.8965 87.285 52.4978 87.3781L51.1418 87.6968C50.3177 87.8825 49.8656 87.8162 49.7858 87.4844L49.6262 87.5241C49.6529 87.6701 49.6663 87.7762 49.6396 87.8692L49.5598 87.5374L48.4696 87.7895C48.3901 87.285 46.9143 85.4532 44.0561 82.2936C44.003 81.6831 45.0134 80.7935 47.0739 79.6388L52.8965 74.5277C54.1993 72.8552 54.9703 70.1734 55.2231 66.483L55.1433 65.6201C54.9172 63.0183 53.0297 60.9207 49.48 59.3013C47.3797 57.8808 43.6043 57.1239 38.1537 57.0046C33.6336 57.3894 27.7313 58.9958 20.4725 61.797C18.4785 63.2437 16.2053 64.6775 13.6529 66.0979L13.6927 66.5493C13.8656 66.536 14.0917 66.4433 14.3708 66.2839C14.6633 66.2573 14.8229 66.39 14.8493 66.6557L15.3014 66.4033L15.5275 66.39L15.5405 66.6024C15.5538 66.8148 13.9718 68.0495 10.768 70.3061L11.0208 70.7046L10.7947 70.7179L10.3029 70.5452C10.3163 70.6779 10.0902 70.7709 9.62473 70.8106L9.65145 71.0497L10.183 71.6338C10.0104 71.6472 9.77098 71.5938 9.46547 71.4878C8.42836 71.5805 7.41797 72.324 6.42094 73.7311L6.67371 74.1296C7.53785 73.333 8.0427 72.9349 8.18895 72.9215L8.24238 73.5721C8.09614 73.5851 7.87008 73.6781 7.56422 73.8375L8.10949 74.6604C9.13896 73.5494 10.3047 72.5727 11.5791 71.7532C12.2038 71.9126 12.5364 72.1116 12.5494 72.324L13.0282 72.2844C16.458 69.7486 19.8478 67.9167 23.2112 66.7884L23.2513 67.2395C22.6262 68.1688 22.2008 68.647 21.9748 68.6733C22.0015 68.9921 22.108 69.2708 22.3074 69.5099C22.3604 70.0807 20.8315 73.9305 17.7342 81.0459C10.7016 97.5867 4.79918 109.826 0 117.738C0.0133594 117.898 0.106523 118.11 0.279141 118.375C1.4625 118.097 2.20676 117.805 2.52598 117.526L2.7784 117.499L2.81848 117.951L3.25688 117.911L3.70899 117.659C3.72234 117.792 3.86859 117.858 4.17445 117.831L4.21418 118.283C4.25391 118.721 4.00149 119.384 3.46957 120.3C2.99109 120.845 2.47254 121.986 1.92762 123.726L1.94098 123.938L2.37973 123.898C4.29399 121.761 5.74313 119.663 6.74016 117.619C12.3237 115.986 16.5776 114.38 19.5289 112.8C22.4933 112.548 24.7532 111.764 26.2955 110.477L26.2688 110.238L25.1522 110.57L24.8994 110.596L24.8731 110.357C27.0531 110.026 28.5553 109.547 29.3931 108.884C33.6336 105.618 36.8374 103.308 39.0045 101.941C43.4581 98.6754 46.356 95.4891 47.6722 92.3962C47.9113 92.3428 48.1507 92.2898 48.4165 92.2235C49.0412 92.1971 49.3872 92.1838 49.48 92.1571C49.4536 92.0378 49.5067 91.9714 49.6262 91.9447C50.6233 91.8387 50.1448 92.0111 50.7829 91.865L52.4581 91.4803L52.7372 91.4136L52.6043 91.4933C52.7903 91.5199 52.9896 91.5066 53.2157 91.4536L53.3352 91.9447L45.7179 104.038L44.0297 106.149L43.2053 108.91L43.3649 108.871L44.189 108.526L43.9232 109.601L44.003 109.919L44.229 110.198C44.1225 110.225 44.0828 110.291 44.1092 110.41L44.1492 110.583L44.4948 110.503C45 110.065 45.2127 109.667 45.1329 109.309C45.6778 109.401 46.0368 109.441 46.2231 109.388L46.2628 109.561C45.9306 109.641 45.7576 109.906 45.7313 110.357L45.771 110.53L45.9573 110.49C48.7224 107.477 55.5022 97.1619 60.9395 90.1659C60.7665 89.4093 63.5984 88.3603 69.4477 87.0063L69.6337 86.9666C69.8463 87.8825 69.3946 90.0995 68.2777 93.6175C67.5598 95.7415 67.2142 96.9095 67.2673 97.0956C66.3367 99.923 65.8979 101.45 65.9514 101.689L63.8775 108.472C62.5345 111.951 61.5112 115.601 60.7933 119.451C60.9128 119.424 61.0991 119.438 61.3649 119.504L61.6574 119.252C61.6838 119.371 61.7636 119.411 61.8835 119.384L61.7636 118.893L62.6678 118.867C62.9336 118.801 63.1596 118.468 63.3456 117.858C63.3059 116.942 63.4919 116.451 63.9039 116.344C64.4622 114.168 64.8081 113.079 64.9276 113.039C65.4462 110.875 65.8315 109.641 66.0843 109.335C66.8686 106.521 67.4403 105.074 67.8126 104.981L67.8924 105.326L67.3207 106.8C66.3233 111.22 65.3133 114.712 64.2895 117.274L64.582 118.548L64.768 118.508C67.2409 113.198 70.8036 102.684 75.4432 86.9666C75.5761 85.5859 76.2409 84.5106 77.4239 83.754L77.1581 83.4753L77.1181 83.3292C77.65 83.2095 78.0223 82.9975 78.235 82.7054C78.2083 82.5857 77.7431 82.4133 76.8389 82.1742L79.1522 72.271C79.6574 71.8195 79.9499 71.5808 80.0427 71.5808L80.0828 72.0849C79.9633 72.0983 79.7769 72.1646 79.5642 72.3107L80.003 72.9349C80.8007 72.072 81.6648 71.3284 82.6084 70.7046C83.0872 70.8373 83.3263 70.9966 83.353 71.1557L83.6986 71.1294C86.3308 69.2045 88.9098 67.8237 91.4492 66.9875L91.4755 67.3192C91.0104 68.0228 90.6912 68.3812 90.5186 68.3946C90.5449 68.6336 90.6114 68.846 90.7313 69.0317C90.771 69.4699 89.6277 72.3904 87.2881 77.8066C81.944 90.3516 77.4637 99.631 73.8211 105.658C73.8345 105.777 73.9143 105.937 74.0605 106.149C74.9514 105.937 75.523 105.711 75.7491 105.499L75.9083 105.485L75.9351 105.817L76.3074 105.791L76.6396 105.618C76.6529 105.711 76.7725 105.751 76.9985 105.738L77.0253 106.096C77.0516 106.415 76.8656 106.919 76.4536 107.609C76.0679 108.021 75.6693 108.884 75.2439 110.198L75.2569 110.371L75.6028 110.344C77.0516 108.725 78.1552 107.131 78.9128 105.565C83.1537 104.317 86.3842 103.109 88.6173 101.914C90.8909 101.715 92.6055 101.131 93.7755 100.149L93.7621 99.976L92.898 100.228L92.712 100.242L92.6986 100.069C94.3471 99.83 95.5037 99.4586 96.1285 98.9674C99.3456 96.498 101.778 94.7325 103.427 93.6969C108.558 89.9668 110.951 86.3824 110.659 82.9441ZM109.781 83.1698L109.901 84.5106C109.742 84.8427 109.569 85.015 109.409 85.0284L109.21 82.7451C109.582 82.8778 109.768 83.0105 109.781 83.1698ZM9.11953 72.364L8.89383 72.377L8.85375 71.9656L9.77098 71.8859L9.78434 72.0983C9.63809 72.1116 9.41203 72.1913 9.11953 72.364ZM4.63957 117.114C4.10801 116.875 3.62918 116.783 3.21715 116.822L3.16406 116.172C3.13734 115.92 3.28359 115.747 3.60281 115.681C3.89496 115.654 4.06793 115.867 4.09465 116.291C4.86563 115.349 5.29102 114.871 5.37082 114.858L5.86266 115.057C5.70305 116.384 5.29102 117.061 4.63957 117.114ZM52.5111 67.1068C52.2851 67.1335 51.833 66.43 51.1819 65.0359L51.1418 64.6245C51.5672 64.5848 52.006 65.275 52.4711 66.6954L52.5111 67.1068ZM51.8731 62.1554L51.6867 62.5935L45.186 59.8851C49.5201 60.0311 51.7535 60.788 51.8731 62.1554ZM24.4209 85.6922L23.5037 85.7719L23.464 85.3601L24.3812 85.2804L24.4209 85.6922ZM23.6763 71.5541L23.9024 71.5408L23.9558 72.1913C23.7431 72.2047 23.464 72.5231 23.1181 73.1339L23.0783 72.6825C23.4904 72.1913 23.7031 71.8195 23.6763 71.5541ZM21.7487 76.0941L21.8285 76.957L21.6028 76.9704L21.523 76.1075L21.7487 76.0941ZM20.7387 77.7139L21.1774 77.6739C21.1373 78.3908 20.938 78.7759 20.5791 78.8022L20.353 78.8156C20.6322 78.3378 20.765 77.966 20.7387 77.7139ZM19.9807 79.9706L20.2335 79.9439L20.2465 80.1563L19.8345 80.8468L19.3957 80.8865L19.3827 80.6741C19.8214 80.6344 20.0208 80.4087 19.9807 79.9706ZM19.2365 82.0018L19.1036 83.0901L18.8775 83.1035L18.7843 82.0282L19.2365 82.0018ZM11.7784 103.176C11.4859 104.662 11.167 105.419 10.8345 105.446L10.8214 105.233C10.7416 104.503 11.0605 103.813 11.7784 103.176ZM10.4091 106.136L10.4224 106.348C10.4491 106.64 10.3163 106.813 10.0238 106.826L10.0104 106.614C9.98368 106.362 10.1166 106.202 10.4091 106.136ZM10.0104 112.282L10.7016 112.216L10.7283 112.455C10.5553 112.468 10.3293 112.561 10.0501 112.72L9.61137 112.76C9.585 112.534 9.73125 112.362 10.0104 112.282ZM29.6852 106.216C25.8036 108.127 23.5171 109.428 22.8389 110.105C18.6381 111.565 16.5509 112.468 16.5909 112.826C12.8552 114.3 10.3957 115.389 9.2127 116.066C8.93356 116.092 8.53489 115.986 8.00297 115.747C7.93653 114.99 8.28211 114.38 9.01336 113.888C9.66481 113.835 10.2895 113.928 10.8879 114.181C11.5791 113.822 12.7888 113.424 14.5037 112.999L14.464 112.548L13.0813 112.667C13.2539 112.428 14.5835 111.804 17.0828 110.796L17.7739 110.729L17.7873 110.942C16.6043 111.048 15.9529 111.393 15.8066 112.017C15.833 112.296 15.9926 112.415 16.2851 112.388C17.1759 111.831 17.6143 111.499 17.6013 111.406C19.2895 111.088 23.9558 108.645 31.5999 104.092L31.6396 104.503C31.6529 104.702 31.0015 105.26 29.6852 106.216ZM17.9603 110.065C19.0768 109.972 20.0341 109.521 20.8315 108.738C21.1507 108.711 21.3237 108.831 21.3367 109.109C20.7918 109.163 19.7416 109.614 18.2127 110.49L17.9866 110.503L17.9603 110.065ZM36.8775 95.5554L31.0149 100.202C26.6544 103.056 24.3148 104.49 23.9688 104.516C17.0297 108.326 12.709 110.304 11.0341 110.45L10.7814 110.477C10.9941 109.694 14.0783 103.388 20.0605 91.5199C22.6927 91.2942 26.8404 90.0728 32.4904 87.8429L33.8731 87.7232C36.7313 87.4711 38.8716 88.0286 40.2806 89.356L40.3604 90.2189C39.3103 93.2591 38.1403 95.038 36.8775 95.5554ZM25.418 89.1172L26.3619 89.0375L26.3753 89.2499L25.4313 89.3296L25.418 89.1172ZM38.6722 86.8736L39.3634 86.8072C40.0015 87.1127 40.3337 87.3781 40.3604 87.6171L40.3738 87.8295C39.7621 87.8825 39.1904 87.5638 38.6722 86.8736ZM40.5464 76.2138C39.9351 76.9437 38.2599 78.1917 35.5215 79.9439C34.6173 80.0236 31.2539 81.3246 25.4313 83.8734C25.1402 83.7406 24.8195 83.6857 24.5007 83.714L24.461 83.3025C24.3946 82.4663 24.7665 81.4177 25.5909 80.1433C26.0427 77.7536 26.5349 76.3862 27.0798 76.0544L31.9321 65.1556C31.879 64.4784 32.9158 63.9606 35.0427 63.6022L35.7342 63.5358L35.7873 64.16C37.8745 63.8412 39.1771 63.6555 39.6823 63.6155C43.5379 63.2837 45.5449 64.067 45.7045 65.9388L46.1433 65.8988L46.0501 64.7972L46.529 64.7572C47.6589 65.381 48.2702 66.1379 48.3501 67.0272C48.4031 67.638 48.0709 68.3946 47.3664 69.2975C47.0739 69.3238 46.9009 69.1114 46.8745 68.6866L46.3957 68.7267L46.2895 70.054C44.3352 72.9746 42.9128 74.4747 42.0356 74.5543C41.2379 75.656 40.7461 76.2005 40.5464 76.2138ZM43.5245 83.847C43.1255 83.5813 42.8066 83.4619 42.5672 83.4753L42.5141 82.8247L42.9529 82.7847L43.9232 83.3559C43.9633 83.661 43.83 83.8204 43.5245 83.847ZM46.6088 87.4974C47.0342 87.6702 47.2866 87.8559 47.3397 88.0286L47.127 88.0816L47.1403 88.0949C47.1006 88.0949 47.0472 88.1083 47.0074 88.1216L46.6882 88.3737L46.6088 87.4974ZM46.9009 89.3296L46.8612 89.1569L47.4195 89.0242L47.4595 89.1969L46.9009 89.3296ZM48.2439 90.8297C48.8155 90.7367 49.0947 90.697 50.1581 90.458L50.1979 90.6303L48.1774 91.0951C48.2038 91.0021 48.2305 90.9094 48.2439 90.8297ZM50.2112 91.666C49.3604 91.7457 49.5464 91.6393 48.1904 91.9447L48.1507 91.772L49.8523 91.2278L50.6633 91.0421L50.7431 91.3605C50.3708 91.4402 50.6366 91.4402 50.2112 91.666ZM52.0059 91.2412C51.8066 91.2942 51.647 91.2015 51.5538 90.9758L52.0724 90.8561C52.2985 90.8031 52.4447 90.8961 52.4978 91.1218L52.0059 91.2412ZM56.8716 86.0107L56.8315 85.8383L57.6693 85.6389L57.7491 85.9577L56.8716 86.0107ZM62.0694 117.845C62.1225 117.605 62.1359 117.433 62.1092 117.313L62.2955 117.274C62.5215 117.221 62.6544 117.3 62.7075 117.513L62.7476 117.685L62.0694 117.845ZM65.712 87.3781L65.3397 87.3117C64.7417 87.5508 64.2365 87.7232 63.8241 87.8162L63.4785 87.8959C63.2792 87.9489 63.1195 87.8692 63.0397 87.6568L65.4726 87.0993L66.2702 86.7275L66.5364 87.033C66.1507 87.1127 65.8716 87.232 65.712 87.3781ZM67.5865 86.7806L67.5464 86.6082C67.6663 86.5815 67.8256 86.4888 67.9985 86.3161L69.7268 85.9176L69.7665 86.0904C68.8493 86.3161 68.1181 86.5418 67.5865 86.7806ZM67.8523 83.2892C67.7327 83.3159 67.5731 83.4219 67.3738 83.5813C67.3471 83.4619 67.108 83.4619 66.6559 83.5679C66.5761 83.2362 67.8523 82.7717 70.4978 82.1609L70.8701 82.0812L70.9499 82.4C69.0887 82.9441 68.0516 83.2495 67.8523 83.2892ZM72.5052 78.2714C72.3192 80.382 71.5746 81.5767 70.2584 81.8821L70.2187 81.7098L69.0487 82.1609L68.5304 82.2806C68.2643 82.3469 68.0253 82.3336 67.8126 82.2673L67.706 81.8024C67.6663 81.6301 69.3545 79.2934 72.7844 74.8064L73.183 74.8728C73.3293 75.4836 73.1036 76.6119 72.5052 78.2714ZM80.7342 71.2354L80.5746 71.2487L80.5479 70.917L81.2394 70.8506L81.2524 71.023C81.1329 71.0497 80.9603 71.116 80.7342 71.2354ZM77.3441 105.233C76.9454 105.047 76.5865 104.967 76.2806 104.994L76.2409 104.49C76.2276 104.317 76.3337 104.198 76.5598 104.131C76.7858 104.105 76.9187 104.264 76.9454 104.609C77.5171 103.879 77.836 103.507 77.9024 103.507L78.2613 103.653C78.1285 104.662 77.823 105.193 77.3441 105.233ZM113.69 67.2662C113.517 67.2796 113.185 66.7484 112.666 65.6731L112.64 65.3413C112.972 65.3147 113.318 65.8325 113.663 66.8944L113.69 67.2662ZM113.211 63.4695L113.052 63.8146L108.133 61.757C111.417 61.8633 113.118 62.4342 113.211 63.4695ZM92.353 81.3513L91.6619 81.4177L91.6351 81.0856L92.3263 81.0192L92.353 81.3513ZM91.7814 70.6115L91.9674 70.5982L92.0074 71.1027C91.8345 71.116 91.6218 71.3551 91.3694 71.8195L91.3426 71.4878C91.6485 71.1027 91.7947 70.8106 91.7814 70.6115ZM90.3323 74.0632L90.3857 74.7137L90.1994 74.7271L90.1463 74.0765L90.3323 74.0632ZM89.5479 75.2976L89.8935 75.2712C89.8538 75.8287 89.7075 76.1208 89.4551 76.1471L89.2688 76.1605C89.4681 75.789 89.5613 75.497 89.5479 75.2976ZM88.9896 76.9971L89.1492 76.9837L89.1626 77.1561L88.8567 77.6873L88.5112 77.7139L88.4978 77.5412C88.8567 77.5145 89.0163 77.3288 88.9896 76.9971ZM88.4314 78.5368L88.3118 79.3864L88.1522 79.3997L88.0858 78.5635L88.4314 78.5368ZM82.7547 94.6395C82.529 95.7548 82.2896 96.3257 82.0368 96.352L82.0238 96.206C81.9837 95.6485 82.2231 95.1173 82.7547 94.6395ZM81.7046 96.8832L81.7179 97.0292C81.7446 97.2679 81.6381 97.4006 81.3987 97.414L81.3857 97.2416C81.3723 97.0689 81.4785 96.9495 81.7046 96.8832ZM81.4121 101.556L81.944 101.516L81.957 101.689C81.8374 101.702 81.6515 101.768 81.4388 101.888L81.0932 101.914C81.0798 101.729 81.186 101.609 81.4121 101.556ZM96.3412 96.9495C93.4165 98.3966 91.6749 99.3789 91.1299 99.8834C87.9395 100.998 86.3575 101.689 86.3842 101.967C83.5524 103.096 81.6912 103.906 80.814 104.423C80.6013 104.437 80.2955 104.357 79.8965 104.171C79.8434 103.6 80.1092 103.136 80.6678 102.791C81.173 102.751 81.6515 102.817 82.0902 103.003C82.6218 102.738 83.539 102.445 84.8419 102.113L84.8155 101.782L83.7387 101.875C83.8716 101.689 84.895 101.211 86.7962 100.441L87.3278 100.401L87.3412 100.547C86.4373 100.627 85.9321 100.892 85.8256 101.37C85.8389 101.583 85.9718 101.689 86.1979 101.662C86.8627 101.224 87.1815 100.972 87.1815 100.892C88.4581 100.667 91.9941 98.808 97.8037 95.33L97.83 95.6618C97.83 95.7945 97.3382 96.2193 96.3412 96.9495ZM87.4343 99.87C88.2985 99.7903 89.0297 99.4586 89.6411 98.8744C89.8671 98.8611 90 98.9541 90.0134 99.1665C89.6144 99.2062 88.83 99.5383 87.647 100.175L87.461 100.188L87.4343 99.87ZM101.819 88.8385L97.3916 92.3962C94.0813 94.5598 92.2866 95.6485 92.0074 95.6751C86.7431 98.569 83.4726 100.069 82.183 100.175L81.997 100.188C82.1567 99.5913 84.5097 94.7989 89.0561 85.7983C91.0368 85.6259 94.1745 84.6833 98.4815 82.9841L99.5583 82.8911C101.725 82.7054 103.347 83.1302 104.411 84.1521L104.464 84.8026C103.653 87.086 102.775 88.4267 101.819 88.8385ZM93.124 83.9531L93.8155 83.8867L93.8285 84.0594L93.1374 84.1258L93.124 83.9531ZM103.187 82.2406L103.719 82.2009C104.211 82.4396 104.464 82.652 104.477 82.8247L104.49 82.9708C104.025 83.0105 103.587 82.7717 103.187 82.2406ZM104.584 74.1559C104.118 74.7137 102.855 75.6693 100.795 76.9971C100.104 77.0634 97.5509 78.0457 93.1374 79.9572C92.9247 79.8775 92.6853 79.8512 92.4328 79.8642L92.4061 79.5325C92.353 78.8953 92.6322 78.0987 93.2439 77.1298C93.5895 75.2976 93.9748 74.2756 94.3738 74.0365L98.0828 65.7528C98.0427 65.2616 98.8271 64.8635 100.422 64.5581L100.954 64.5184L100.994 65.0226C102.563 64.7705 103.546 64.6245 103.945 64.5848C106.87 64.3324 108.399 64.9165 108.519 66.3503L108.864 66.3236L108.798 65.527L109.143 65.5007C109.994 65.9652 110.446 66.5227 110.499 67.1865C110.539 67.6643 110.3 68.2485 109.795 68.9257C109.569 68.952 109.436 68.793 109.409 68.4476L109.064 68.4742L108.957 69.4699C107.481 71.7135 106.405 72.8682 105.727 72.9215C105.128 73.7311 104.756 74.1429 104.584 74.1559ZM106.139 79.6785L106.099 79.174L106.445 79.1477L107.189 79.5988C107.202 79.8112 107.096 79.9309 106.87 79.9572C106.551 79.7582 106.312 79.6652 106.139 79.6785ZM44.2554 111.924L43.9098 112.004L43.6173 112.256C43.6708 112.468 43.8036 112.548 44.0297 112.495C44.2554 112.442 44.3486 112.309 44.2955 112.097L44.2554 111.924ZM42.9395 109.309L42.9792 109.481C43.2053 109.428 43.2985 109.295 43.2454 109.083L43.2053 108.91C42.9926 108.963 42.8994 109.096 42.9395 109.309ZM52.3515 91.6526L52.6043 91.4933C52.5509 91.4933 52.5112 91.4799 52.4711 91.4669C52.3783 91.4933 52.3382 91.5596 52.3515 91.6526ZM52.2985 87.0726L52.6971 86.98L52.6173 86.6345L52.2186 86.7275L52.2985 87.0726ZM146.247 100.481L145.343 100.375L145.183 100.72L145.196 100.892L150.581 100.441L150.554 100.109L146.247 100.481ZM151.166 100.069L151.192 100.401H151.245L151.219 100.069H151.166ZM173.752 97.1219L173.778 97.454L174.363 97.56L174.337 97.2283L173.752 97.1219ZM172.928 97.1882C168.886 98.0912 168.381 97.9318 167.53 97.9981L167.557 98.3299L167.929 98.3036L168.128 98.2902L168.075 98.2506L168.514 98.0778C172.516 97.6397 172.981 97.7991 172.941 97.3476L172.928 97.1882ZM148.666 91.3209L148.307 91.2015C148.015 91.9844 147.869 92.4492 147.882 92.5819L147.895 92.728C148.174 92.7146 148.427 92.2368 148.666 91.3209ZM143.801 88.7058L143.787 88.5331L143.601 88.5464L143.269 88.7588L143.455 89.0772C143.708 89.0509 143.827 88.9312 143.801 88.7058ZM154.369 99.6176L154.343 99.2859L154.236 99.2992L154.263 99.6309L154.369 99.6176ZM176.304 94.6795L176.557 94.6528C176.703 94.6395 176.77 94.5201 176.756 94.3077L176.61 93.989C175.693 94.0687 175.267 94.1087 174.523 94.5201L174.51 94.3474L173.406 94.4538C173.38 94.1217 173.287 93.9493 173.14 93.9626L172.569 94.0157C171.904 94.0687 171.585 94.0423 171.252 94.2944C171.239 94.175 171.199 94.1217 171.133 94.1217L170.495 94.175L170.123 94.3874C170.109 94.2677 170.069 94.2147 170.003 94.2147L169.777 94.4138L169.764 94.2414L168.873 94.175L168.66 94.1884L168.687 94.5201L169.139 94.6395L169.564 94.6132C169.711 94.7058 169.87 94.7325 170.056 94.7192L170.428 94.5335L170.442 94.6795C168.355 95.197 168.368 95.1043 166.932 95.343C166.773 95.237 166.653 95.184 166.573 95.197L166.546 95.2237C166.387 95.2103 166.294 95.1043 166.281 94.9316L167.025 94.8386C167.078 94.8386 167.118 94.8919 167.53 94.9716C168.128 94.6795 168.155 94.5598 168.474 94.5335L168.448 94.2014C166.4 94.5998 167.225 94.3341 164.659 94.5598L164.539 94.5731L164.513 94.2414C167.81 93.8429 166.706 94.0687 167.836 93.7503C167.849 93.8696 167.889 93.9226 167.956 93.9226C168.077 93.7991 168.236 93.7197 168.408 93.6969L168.634 93.6839C169.79 93.5909 170.176 93.8166 172.463 93.1794L172.476 93.3255L172.848 93.1394L173.193 93.1131C173.167 92.781 173.672 92.7279 173.845 92.7146L173.819 92.3562C169.804 93.1661 168.753 92.9403 167.637 93.2591L167.623 93.1131C166.573 93.2988 166.533 93.2191 166.267 93.2324C166.188 93.2458 166.068 93.3121 165.935 93.4448C165.922 93.3255 165.882 93.2721 165.802 93.2721C165.762 93.2721 165.749 93.2854 165.736 93.2854L162.332 93.8429C162.319 93.7503 162.279 93.6969 162.199 93.7102C160.431 94.082 160.91 94.1484 158.543 94.3608C158.437 94.3741 158.291 94.4271 158.105 94.5465C158.092 94.4538 158.038 94.4008 157.919 94.4138L156.47 94.5335L155.499 94.7722C155.486 94.6795 155.433 94.6262 155.313 94.6395C154.768 94.7855 154.29 94.8786 153.904 94.9049H153.878C153.638 94.9316 153.997 94.8386 153.811 94.7592L153.519 94.9316C153.093 94.9716 153.319 94.9049 151.857 94.9182C149.291 95.237 149.57 95.2767 149.291 95.29L148.334 95.2237C148.347 95.3167 148.294 95.3831 148.188 95.3831C147.098 95.237 146.539 95.0643 146.526 94.8652C146.672 93.8299 146.925 93.2988 147.284 93.2721L147.47 93.2591L147.31 93.6042L147.496 93.5909C147.842 93.4048 148.002 93.2324 147.988 93.073L147.962 92.7146L147.616 92.7413L147.589 92.4092C147.563 92.1571 147.603 91.9314 147.696 91.7457L148.48 90.4843L148.507 90.8164L148.879 90.7897L148.852 90.458L148.64 90.1525C148.919 89.9135 149.131 89.7808 149.304 89.7674L149.291 89.595L148.786 89.6347L148.746 89.1302C149.757 87.033 150.235 85.8116 150.208 85.4665L150.567 85.6126C150.793 85.5992 150.899 85.4665 150.886 85.2274L150.541 85.2541L150.527 85.1081C150.503 84.8657 150.549 84.6213 150.66 84.4045C151.205 83.8337 151.458 83.2629 151.405 82.6654C151.511 82.652 151.564 82.7054 151.578 82.8247C152.043 82.5593 152.402 81.8555 152.668 80.6875C153.492 79.2007 154.662 76.2268 156.19 71.7799C159.115 63.9209 158.996 63.0847 159.408 61.2261L159.062 61.2525C159.089 61.4916 159.036 61.7173 158.929 61.9297C158.69 61.8366 158.504 61.7836 158.371 61.797L158.357 61.6509C158.304 60.9737 158.584 60.1642 159.222 59.2082L159.381 59.1949L159.674 60.3365L160.019 60.3102C160.006 60.2305 160.099 59.7791 160.285 58.9428C160.272 58.7701 160.139 58.6641 159.873 58.6507L159.541 58.8631C159.514 58.624 159.527 58.0002 159.567 57.0046L159.394 57.0179C159.102 56.7258 158.956 56.4868 158.943 56.2877L157.041 56.4734C157.028 56.3407 156.962 56.1417 156.829 55.8892C156.816 55.7169 157.241 55.5442 158.118 55.3718L158.504 55.5178L158.863 55.3054C158.876 55.4248 158.942 55.4778 159.075 55.4645L159.434 55.2521C159.448 55.3718 159.514 55.4248 159.647 55.4114L159.82 55.3981L159.793 55.0133C159.528 55.0397 158.823 55.0397 157.706 55L157.347 55.2391L157.334 55.0267C148.414 55.7565 143.349 56.1683 142.139 56.2877C141.979 56.301 141.355 56.2877 140.251 56.261C140.264 56.4071 140.131 56.4868 139.866 56.5134L139.48 56.3407L138.177 56.6728C137.872 56.6992 137.353 56.6858 136.635 56.6061C136.436 56.7655 136.196 56.8585 135.904 56.8852C135.745 56.8982 137.805 56.7788 139.719 56.6461C139.52 56.8055 139.214 56.8982 138.789 56.9382C138.496 56.9646 138.244 56.9249 138.031 56.8055C137.739 56.9382 136.795 57.1506 135.213 57.469L134.827 57.323L128.606 58.279C128.366 58.1596 128.087 58.1196 127.768 58.1462C127.436 58.1726 126.878 58.2923 126.107 58.5047L123.102 59.7524L123.328 60.1242C123.474 60.1108 123.687 60.0311 123.94 59.8851L125.003 59.9781L124.87 60.9737C123.886 61.4119 123.315 62.0624 123.155 62.8853C121.68 63.5358 120.948 64.0006 120.948 64.2794L120.962 64.4517L121.187 64.4387L121.587 64.2264L122.052 64.7838L122.118 65.5537C122.145 65.7928 119.659 71.0096 114.687 81.2053C110.38 91.0288 108.12 96.4054 107.907 97.3743C106.431 97.7857 105.581 98.3833 105.328 99.1798C105.355 99.4319 105.793 99.6046 106.644 99.671L106.684 100.056L106.298 100.693L106.365 101.463C106.405 101.861 107.481 102.167 109.595 102.379C109.582 102.246 109.648 102.167 109.795 102.153C109.834 102.631 109.702 103.56 109.396 104.941L109.622 104.928C110.499 103.733 110.911 102.91 110.872 102.459L111.058 102.445C111.27 102.432 111.496 102.671 111.762 103.189C111.496 103.295 110.566 105.406 108.97 109.534L109.196 109.906L109.422 109.893C111.377 104.955 112.6 102.22 113.105 101.702C115.671 101.476 120.111 101.025 126.412 100.348L126.811 100.109C126.824 100.242 126.904 100.308 127.05 100.295L127.463 100.255L127.861 100.016C127.875 100.149 127.954 100.215 128.101 100.202L132.873 99.7903C134.136 99.684 134.734 99.2992 134.681 98.6487C134.668 98.4759 135.412 98.2769 136.914 98.0645C137.061 98.0512 137.273 98.0912 137.566 98.1839C137.552 98.0645 138.31 97.9451 139.826 97.8124C139.866 97.0159 140.118 96.5911 140.57 96.5511L140.53 96.1663C140.105 96.206 139.626 96.3123 139.068 96.498C138.071 96.445 137.433 96.3653 137.167 96.2723C136.901 96.4184 136.702 96.498 136.555 96.5114L133.232 96.6174L132.833 96.8298C132.82 96.7104 132.74 96.6574 132.594 96.6708L132.408 96.6838L131.982 96.8965C131.969 96.7768 131.623 96.6838 130.932 96.5911L130.507 96.8431L129.683 96.9095L129.669 96.6971C133.95 96.2326 136.064 95.6485 136.01 94.9583C136.29 94.9316 136.436 95.0643 136.462 95.343L137.712 95.0246L137.672 94.6395L127.422 94.9182C127.436 95.0509 127.369 95.1306 127.223 95.144L125.973 95.038C125.654 95.0643 125.389 95.1573 125.176 95.3167L124.71 95.144C123.421 95.2504 122.464 95.4094 121.826 95.6088C120.948 95.5424 119.978 95.5554 118.901 95.6485L116.601 95.8475L115.538 95.7282C115.484 95.0509 116.801 91.719 119.513 85.7453C120.297 83.7273 121.015 82.4663 121.706 81.9885C121.852 81.9752 122.065 82.0282 122.357 82.1475L123.993 81.59L124.83 81.7227C126.239 81.6034 127.875 81.2053 129.749 80.5147C130.214 80.4751 130.56 80.5017 130.813 80.6078L132.062 80.3157L135.784 79.9969C137.366 79.8642 139.081 79.5191 140.943 78.9483L140.902 78.5635C140.211 78.6299 139.852 78.5102 139.826 78.2314C139.786 77.7139 139.281 77.5012 138.31 77.5809L138.27 77.1961L139.294 76.904L141.979 76.6783L141.94 76.2935C141.833 76.3065 141.288 76.2935 140.278 76.2535L140.238 75.8421L141.275 75.749C141.554 75.7227 141.674 75.5896 141.647 75.3242C140.251 75.3639 139.546 75.2975 139.533 75.1118C129.802 75.5896 124.923 75.6827 124.897 75.3772C124.751 75.3906 124.551 75.4836 124.285 75.643L124.033 75.2445C126.611 69.7753 128.127 67.0138 128.566 66.9741C128.579 67.1865 128.473 67.5316 128.247 67.9964L128.26 68.1688L128.672 68.1291C129.696 65.6864 130.56 64.4254 131.278 64.3724C134.335 64.1066 130.852 63.9076 137.393 62.8853C137.659 63.005 137.845 63.058 137.978 63.0447C140.543 62.5268 144.12 61.9827 148.706 61.4252L148.679 61.0401L146.234 61.2658L146.207 60.8807C146.499 60.8544 146.739 60.7613 146.938 60.602L146.951 60.8143C147.084 60.8014 147.27 60.7083 147.51 60.5489C147.935 60.5093 148.254 60.5489 148.48 60.6683C149.331 60.4429 150.022 60.3099 150.527 60.2569L152.056 60.1108C152.428 59.8721 152.601 59.6597 152.588 59.4603L152.575 59.2879C152.189 59.3276 151.751 59.3013 151.232 59.2082C151.219 58.9958 151.325 58.8498 151.578 58.7834L154.422 58.518L155.725 58.1859C155.739 58.332 155.805 58.385 155.911 58.385C156.044 58.372 156.231 58.279 156.47 58.1196C156.536 58.1329 156.616 58.1329 156.682 58.1462C156.51 58.5047 156.31 59.0225 156.111 59.6994L155.739 59.726C155.712 59.4736 155.646 59.2479 155.526 59.0488L155.34 59.0622C151.883 68.6733 150.341 73.1473 147.151 80.5281C146.566 82.4133 146.074 83.4619 145.649 83.6877C145.662 83.9001 145.795 84.0061 146.021 83.9797C146.101 84.909 145.888 85.8249 145.369 86.7275C143.894 90.9758 142.91 93.2988 142.405 93.7236L142.737 95.7282C142.75 95.9405 142.644 96.0599 142.418 96.0866L142.072 96.1133C142.019 95.5554 141.82 95.29 141.461 95.33L141.275 95.343C140.823 96.0466 140.477 96.8565 140.251 97.7991L140.597 97.7724C141.062 97.4673 141.275 97.1089 141.235 96.6971L141.926 96.6307L142.325 96.7768C142.006 97.2813 141.86 97.6797 141.886 97.9848L142.072 98.3036L141.62 99.3655L141.634 99.5383C142.033 99.4982 142.471 99.6309 142.937 99.9097C143.255 99.8834 143.601 99.7373 143.987 99.4849C144.386 99.4452 145.875 99.4319 148.44 99.4319L149.73 98.9938C151.298 98.9804 151.551 99.0204 152.907 98.9007L153.465 98.8477L153.758 98.6487L153.771 98.8214C155.193 98.7017 155.287 98.7947 156.403 98.9274L156.417 99.1001L155.632 99.1665L155.659 99.4982C155.898 99.4716 156.111 99.4052 156.284 99.2592C156.483 99.2462 156.602 99.3522 156.616 99.5913C156.297 99.6176 155.938 99.6973 155.539 99.83L155.193 99.7106C154.649 99.8567 154.768 99.8964 154.396 99.923L153.851 99.817C153.864 99.9097 153.811 99.976 153.718 99.976C153.731 100.188 153.851 100.295 154.05 100.281L154.608 100.228L157.52 99.976L158.623 99.7373C158.637 99.83 158.676 99.8834 158.77 99.87L159.301 99.671L160.298 99.5913C161.069 99.5249 161.056 99.4716 162.731 99.2062C162.718 99.1001 162.758 99.0601 162.837 99.0468L162.851 99.1928C165.576 98.7284 165.749 98.7017 166.188 98.5556L166.228 98.6353C166.905 98.4759 166.52 98.516 166.706 98.3833C166.719 98.5026 166.759 98.5556 166.826 98.5556L167.304 98.516L167.278 98.1575L166.307 98.1442L166.294 98.1175C166.254 98.1308 166.228 98.1308 166.188 98.1442H166.055V98.1709C165.403 98.3036 165.39 98.2105 164.964 98.2506L162.532 98.3833L162.519 98.2105L163.875 98.0248L164.366 97.9848L164.646 97.7857L164.659 97.9585C166.573 97.7991 167.251 98.2769 176.105 96.392C176.584 96.352 176.543 95.9539 176.849 95.1306C176.687 95.1418 176.525 95.1049 176.384 95.0246C175.653 95.3034 175.267 95.1707 173.858 95.3964C173.739 95.4097 173.646 95.3034 173.605 95.091L173.592 94.9449L174.948 94.9846C175.201 94.9583 175.693 94.9182 176.424 94.5068C176.424 94.6262 176.145 94.6925 176.304 94.6795H176.304ZM110.845 95.7282L110.22 95.7812C110.193 95.5291 110.526 94.5731 111.217 92.9403L111.629 92.9007C111.643 93.2854 111.39 94.2281 110.845 95.7282ZM111.603 92.7013L111.589 92.5289C111.576 92.3165 111.709 92.1705 112.002 92.1041L112.015 92.2765C112.028 92.5289 111.895 92.6749 111.603 92.7013ZM119.911 99.1131L119.925 99.2859L118.888 99.3789L118.875 99.2062L119.911 99.1131ZM118.662 99.0071C118.675 99.2195 118.356 99.4586 117.665 99.6973L116.388 99.6046L115.976 99.6443L115.937 99.2592L118.662 99.0071ZM127.064 60.3896L126.439 60.4429L126.425 60.2305C126.412 60.0181 126.532 59.8721 126.798 59.8057L127.024 59.7924L127.449 59.9648C127.462 60.2172 127.343 60.3632 127.064 60.3896ZM136.569 58.531L136.768 58.518L136.795 58.9028L136.223 58.9558C136.21 58.7434 136.316 58.5977 136.569 58.531ZM134.176 59.3676L133.232 59.2612L133.219 59.0889C134.455 58.9825 134.867 58.8498 135.625 58.6374C135.638 58.7834 135.771 58.8364 136.01 58.8101L136.037 59.1949L135.665 59.2349C135.372 59.2612 135.12 59.2216 134.907 59.1018C134.681 59.2479 134.442 59.3409 134.176 59.3676ZM135.359 62.8059L135.346 62.6332L136.875 62.4872L136.888 62.6599L135.359 62.8059ZM136.994 61.4782L136.981 61.2658L137.725 61.1995L137.739 61.4119L136.994 61.4782ZM137.167 58.8765L136.967 58.8895L137.14 58.478L138.842 58.3186L138.855 58.531C138.417 58.571 137.845 58.6904 137.167 58.8765ZM138.031 62.5402L138.004 62.1554L138.749 62.0891C139.002 62.0624 139.134 62.1817 139.148 62.4475L138.031 62.5402ZM142.538 56.4071L141.581 56.6728L141.408 56.6858C140.956 56.7258 140.371 56.7125 139.679 56.6461C140.916 56.5665 142.099 56.4734 142.538 56.4071ZM141.514 60.6553L141.527 60.8277L140.211 60.9474L140.198 60.7747L141.514 60.6553ZM143.668 61.6773C143.654 61.5182 143.402 61.4119 142.883 61.3588L141.567 61.7306L140.557 61.7703C140.331 61.6109 140.211 61.5049 140.198 61.4252L141.368 61.4916L144 61.0668L145.343 61.1198L145.356 61.3322C144.691 61.3985 144.133 61.5182 143.668 61.6773ZM157.214 58.1859C157.374 58.1993 157.48 58.1993 157.52 58.1993C157.985 57.7478 158.504 57.3894 159.102 57.1373C158.623 59.2349 157.879 60.788 156.855 61.797L156.111 61.3455C156.736 59.7657 157.108 58.7171 157.214 58.1859ZM154.928 62.1021L155.114 62.0891C154.861 62.5669 154.635 62.8189 154.449 62.8323L154.409 62.3278C154.529 62.3278 154.702 62.2481 154.928 62.1021ZM153.452 65.6201C153.811 64.1863 154.157 63.3768 154.476 63.1644L154.489 63.3368C154.303 64.6641 154.01 65.368 153.625 65.421L153.691 66.2573C153.372 66.7087 153.226 67.0538 153.239 67.3192L153.053 67.3326L152.947 66.1776C153.16 66.1512 153.332 65.9652 153.452 65.6201ZM152.881 67.5316C152.894 67.7307 152.761 68.1955 152.495 68.9124L152.309 68.9257L152.269 68.4212C152.522 67.8371 152.734 67.545 152.88 67.5316H152.881ZM142.152 98.622L142.139 98.4759L142.484 98.4496L142.525 98.9541C142.338 98.9674 142.205 98.8611 142.152 98.622ZM157.48 99.0204C157.467 98.9007 157.414 98.8477 157.294 98.8611L156.43 98.9408L156.417 98.768H156.496L158.543 98.5957L158.557 98.768C157.959 98.7947 157.6 98.8877 157.48 99.0204ZM156.457 98.5957C156.536 98.6353 156.496 98.6753 156.457 98.7017C156.417 98.6883 156.363 98.6487 156.457 98.5957ZM156.563 96.206L155.419 96.299L155.406 96.1263L156.443 96.0336L157.347 95.8078C157.36 95.9139 157.414 95.9539 157.533 95.9405C158.61 95.7548 158.504 95.7015 159.022 95.6618C159.195 95.6485 159.301 95.7548 159.315 95.9672L156.563 96.206ZM160.564 95.8609C159.926 95.7945 159.886 95.7415 159.434 95.7812L159.421 95.6351L160.445 95.5424L160.458 95.6885C160.352 95.7015 160.737 95.7282 160.564 95.8609ZM160.644 95.6751L160.631 95.5291L161.189 95.4757L161.202 95.6218L160.644 95.6751ZM161.881 95.5688L161.867 95.4227C161.96 95.4097 162.093 95.343 162.266 95.2103C162.545 95.184 162.691 95.3697 162.718 95.5821L161.881 95.5688ZM163.463 95.3697L163.449 95.197L164.127 95.144L164.14 95.3167L163.463 95.3697ZM164.406 95.29C164.393 95.091 164.473 94.9716 164.646 94.9449L164.872 95.237C164.858 95.144 164.898 95.091 164.978 95.0776L165.151 95.3964L164.406 95.29ZM177.487 93.7503L177.501 93.7369V93.7236C177.501 93.7236 177.487 93.7369 177.487 93.7503ZM177.727 93.5775C177.833 93.5112 177.886 93.4448 177.634 93.4052C177.514 93.5379 177.767 93.5775 177.501 93.5909L177.514 93.7102C177.541 93.6839 177.607 93.6439 177.66 93.6042L177.514 93.7236V93.7369L177.235 94.0953L177.793 93.8963H177.86L177.833 93.5642L177.727 93.5775ZM178.697 94.3344L178.591 94.3474L178.617 94.6795L179.402 94.6132C179.389 94.4008 178.87 94.3344 178.697 94.3344Z" fill="#F9DC3E"/>
</svg>