<svg width="180" height="180" viewBox="0 0 180 180" fill="none" xmlns="http://www.w3.org/2000/svg">
<path d="M170 0L155.515 161.981L90.4027 180L25.47 162.007L11 0H170Z" fill="#264DE4"/>
<path d="M143.114 151.667L155.492 13.2463H90.5V166.227L143.114 151.667Z" fill="#2965F1"/>
<path d="M44.1721 73.3325L45.9562 93.2017H90.5V73.3325H44.1721Z" fill="#EBEBEB"/>
<path d="M90.5 33.116H90.4312H40.5874L42.3969 52.9856H90.5V33.116Z" fill="#EBEBEB"/>
<path d="M90.5 145.608V124.935L90.4127 124.958L68.2442 118.983L66.8271 103.136H56.0549H46.8455L49.6342 134.334L90.4083 145.633L90.5 145.608Z" fill="#EBEBEB"/>
<path d="M114.942 93.2014L112.632 118.971L90.4313 124.952V145.624L131.238 134.334L131.537 130.977L136.215 78.6677L136.7 73.3322L140.294 33.116H90.4313V52.9856H118.48L116.668 73.3322H90.4313V93.2014H114.942Z" fill="white"/>
</svg>