<svg width="180" height="180" viewBox="0 0 180 180" fill="none" xmlns="http://www.w3.org/2000/svg">
<path d="M60 180C76.56 180 90 166.56 90 150V120H60C43.44 120 30 133.44 30 150C30 166.56 43.44 180 60 180Z" fill="#0ACF83"/>
<path d="M30 89.9997C30 73.4397 43.44 59.9998 60 59.9998H90V120H60C43.44 120 30 106.56 30 89.9997Z" fill="#A259FF"/>
<path d="M30 30C30 13.44 43.44 0 60 0H90V60H60C43.44 60 30 46.56 30 30Z" fill="#F24E1E"/>
<path d="M89.9999 0H120C136.56 0 150 13.44 150 30C150 46.56 136.56 60 120 60H89.9999V0Z" fill="#FF7262"/>
<path d="M150 89.9997C150 106.56 136.56 120 120 120C103.44 120 89.9999 106.56 89.9999 89.9997C89.9999 73.4397 103.44 59.9998 120 59.9998C136.56 59.9998 150 73.4397 150 89.9997Z" fill="#1ABCFE"/>
</svg>