<svg width="180" height="180" viewBox="0 0 180 180" fill="none" xmlns="http://www.w3.org/2000/svg">
<path d="M176.606 81.9815L98.0158 3.39457C93.4926 -1.13152 86.152 -1.13152 81.6231 3.39457L65.3036 19.7144L86.0057 40.4169C90.8165 38.7912 96.3332 39.8818 100.168 43.7167C104.021 47.5763 105.104 53.1402 103.439 57.9665L123.39 77.9188C128.217 76.2559 133.787 77.3316 137.642 81.1933C143.03 86.5793 143.03 95.3088 137.642 100.698C132.252 106.089 123.523 106.089 118.131 100.698C114.078 96.6412 113.077 90.6892 115.129 85.6962L96.5224 67.0897L96.5203 116.054C97.8691 116.721 99.1009 117.602 100.168 118.663C105.556 124.049 105.556 132.779 100.168 138.173C94.7786 143.56 86.0451 143.56 80.6634 138.173C75.2753 132.779 75.2753 124.05 80.6634 118.664C81.9546 117.372 83.4891 116.349 85.1781 115.653V66.2326C83.4866 65.5421 81.9512 64.5184 80.6634 63.2225C76.581 59.1457 75.5994 53.1557 77.6912 48.143L57.2837 27.733L3.3961 81.618C-1.13203 86.1483 -1.13203 93.4898 3.3961 98.0166L81.9873 176.605C86.512 181.132 93.8512 181.132 98.3814 176.605L176.605 98.3815C181.132 93.8533 181.132 86.5076 176.605 81.9815" fill="#DE4C36"/>
</svg>
