<svg width="180" height="180" viewBox="0 0 180 180" fill="none" xmlns="http://www.w3.org/2000/svg">
<path d="M90.0004 2C40.3009 2 0 42.2939 0 92.0003C0 131.766 25.7878 165.501 61.5479 177.402C66.0457 178.235 67.6974 175.45 67.6974 173.072C67.6974 170.926 67.6134 163.836 67.5753 156.316C42.5364 161.76 37.253 145.697 37.253 145.697C33.1591 135.294 27.2602 132.529 27.2602 132.529C19.0949 126.942 27.8757 127.057 27.8757 127.057C36.9135 127.692 41.6724 136.332 41.6724 136.332C49.6994 150.091 62.7267 146.113 67.8625 143.814C68.67 137.996 71.0029 134.026 73.5765 131.779C53.5866 129.503 32.5718 121.785 32.5718 87.3C32.5718 77.4745 36.0877 69.4454 41.8453 63.1428C40.9108 60.8756 37.8304 51.722 42.7171 39.325C42.7171 39.325 50.2747 36.9061 67.4736 48.5506C74.6522 46.5558 82.3517 45.5563 90.0004 45.5225C97.649 45.5563 105.354 46.5558 112.547 48.5506C129.725 36.9061 137.272 39.325 137.272 39.325C142.171 51.722 139.089 60.8756 138.155 63.1428C143.925 69.4454 147.417 77.4738 147.417 87.3C147.417 121.867 126.363 129.479 106.322 131.707C109.55 134.5 112.426 139.977 112.426 148.374C112.426 160.416 112.322 170.108 112.322 173.072C112.322 175.467 113.942 178.274 118.504 177.39C154.245 165.476 180 131.752 180 92.0003C180 42.2939 139.705 2 90.0004 2Z" fill="#ffffff"/>
<path d="M33.7079 130.208C33.5103 130.655 32.8058 130.789 32.1656 130.482C31.5127 130.189 31.1456 129.579 31.3574 129.13C31.5515 128.67 32.256 128.541 32.9075 128.85C33.5618 129.143 33.9345 129.759 33.7079 130.208ZM38.1351 134.158C37.7059 134.556 36.8666 134.371 36.297 133.742C35.7083 133.115 35.5982 132.276 36.0337 131.872C36.4763 131.474 37.2901 131.66 37.8802 132.288C38.4689 132.923 38.5833 133.756 38.1343 134.158L38.1351 134.158ZM41.1724 139.212C40.6204 139.595 39.7183 139.236 39.1614 138.435C38.6101 137.636 38.6101 136.676 39.1734 136.291C39.7324 135.906 40.6204 136.252 41.1851 137.046C41.7356 137.86 41.7356 138.82 41.1717 139.212L41.1724 139.212ZM46.3082 145.065C45.8148 145.609 44.7645 145.464 43.9951 144.721C43.2088 143.995 42.9892 142.965 43.484 142.421C43.9831 141.876 45.0398 142.03 45.8148 142.766C46.5962 143.49 46.8348 144.528 46.3089 145.065H46.3082ZM52.9461 147.042C52.7294 147.746 51.7172 148.067 50.6979 147.767C49.6801 147.459 49.0138 146.633 49.2192 145.921C49.4309 145.212 50.4473 144.878 51.4744 145.198C52.4908 145.505 53.1586 146.325 52.9468 147.042H52.9461ZM60.5016 147.88C60.527 148.622 59.6623 149.238 58.5923 149.251C57.5158 149.274 56.6455 148.674 56.6342 147.944C56.6342 147.194 57.4791 146.584 58.5548 146.567C59.6249 146.546 60.5016 147.142 60.5016 147.88ZM67.923 147.595C68.0515 148.319 67.3075 149.063 66.2452 149.261C65.2005 149.452 64.2335 149.005 64.1001 148.287C63.9702 147.544 64.7283 146.801 65.7708 146.608C66.8353 146.423 67.7875 146.859 67.923 147.595Z" fill="#ffffff"/>
</svg>
