<svg width="180" height="180" viewBox="0 0 180 180" fill="none" xmlns="http://www.w3.org/2000/svg">
<path d="M160.795 88.624C160.795 79.3712 153.293 71.8698 144.039 71.8698C143.443 71.8698 142.856 71.9017 142.277 71.9629L165.291 4.09155H67.4889L90.4712 71.9036C90.1321 71.8822 89.7924 71.8712 89.4526 71.8704C80.1989 71.8704 72.6968 79.3706 72.6968 88.6246C72.6968 96.1037 77.5991 102.436 84.3646 104.59C80.7915 110.779 76.2948 116.354 71.1896 121.171C64.2474 127.719 56.3026 132.684 47.7097 135.744C37.4789 130.488 32.6479 118.801 37.0069 108.554C37.4993 107.397 38.0019 106.224 38.4822 105.056C45.8938 103.326 51.4174 96.6828 51.4174 88.7445C51.4174 79.4911 43.9152 71.9903 34.6609 71.9903C25.4066 71.9903 17.9051 79.4911 17.9051 88.7445C17.9051 94.4187 20.7281 99.431 25.0443 102.462C20.8972 111.903 14.8008 121.785 12.9013 133.237C10.6249 146.962 12.8936 161.531 24.7656 169.759C52.4143 188.92 82.4269 157.881 114.071 150.077C125.539 147.25 138.128 147.706 148.232 141.855C155.82 137.46 160.822 130.178 162.241 122.002C163.645 113.926 161.6 105.884 156.898 99.3633C159.42 96.3537 160.8 92.5508 160.795 88.624Z" fill="#99425B"/>
<path d="M158.21 121.302C156.977 128.401 152.593 134.6 146.181 138.314C140.204 141.775 133.042 142.809 125.458 143.902C121.396 144.487 117.195 145.094 113.091 146.105C102.24 148.781 91.7303 154.001 81.567 159.049C61.2266 169.151 43.6607 177.874 27.0975 166.396C14.9647 157.988 15.5247 142.432 16.9381 133.907C18.2482 126.009 21.7901 118.735 25.2146 111.701C25.798 110.506 26.3768 109.308 26.9508 108.108C28.677 108.798 30.4884 109.253 32.336 109.459C28.8496 120.964 34.3324 133.473 45.8395 139.384L47.415 140.193L49.0823 139.599C58.1797 136.359 66.5627 131.162 73.9979 124.147C78.804 119.613 82.9365 114.597 86.3329 109.237C87.3655 109.393 88.4083 109.471 89.4526 109.471C100.014 109.471 108.76 101.576 110.114 91.3795C114.437 91.2213 119.029 91.2201 123.377 91.3782C124.729 101.576 133.476 109.472 144.038 109.472C148.455 109.472 152.551 108.088 155.925 105.737C158.268 110.532 159.143 115.928 158.21 121.302ZM34.6615 76.0826C41.6445 76.0826 47.325 81.7632 47.325 88.7455C47.325 91.2532 46.589 93.5919 45.3254 95.5613C43.2206 98.8439 39.6424 101.094 35.5315 101.375C35.2439 101.394 34.9537 101.408 34.6615 101.408C33.1052 101.408 31.6146 101.124 30.2363 100.609C27.4603 99.5649 25.1357 97.5852 23.6634 95.0109C22.5702 93.1039 21.9957 90.9437 21.9974 88.7455C21.9974 81.7632 27.6786 76.0826 34.6615 76.0826ZM76.7897 88.625C76.7897 82.2811 81.4797 77.0138 87.5735 76.103C88.1871 76.0106 88.8147 75.9627 89.4532 75.9627C93.513 75.9627 97.1276 77.8856 99.4455 80.8652C100.026 81.6082 100.522 82.4136 100.924 83.2664C101.711 84.9431 102.118 86.7728 102.117 88.625C102.117 89.6371 101.994 90.6212 101.769 91.5651C100.535 96.731 96.1294 100.68 90.7308 101.223C90.3111 101.266 89.885 101.287 89.4532 101.287C87.0174 101.289 84.6333 100.584 82.5901 99.2585C79.1038 97.0002 76.7897 93.0785 76.7897 88.625ZM129.644 73.5673C126.888 76.1974 124.905 79.5316 123.909 83.2084C119.136 83.0325 114.358 83.0325 109.584 83.2084C108.513 79.2338 106.292 75.7274 103.304 73.0641L116.408 46.5699L129.644 73.5673ZM73.1968 8.18512H159.583L139.179 68.3554C138.301 68.5656 137.438 68.833 136.595 69.1558L116.44 28.0433L96.227 68.9103C95.3458 68.6078 94.4453 68.3652 93.5315 68.1839L73.1968 8.18512ZM156.702 88.6256C156.702 89.8948 156.512 91.1206 156.163 92.2781C155.336 95.0033 153.617 97.3717 151.282 99.0034C149.16 100.492 146.63 101.29 144.038 101.288C138.191 101.288 133.259 97.3037 131.808 91.9082C131.52 90.8378 131.375 89.7341 131.375 88.6256C131.375 86.8947 131.724 85.2442 132.356 83.7403C132.682 82.9708 133.083 82.2355 133.554 81.5451C135.833 78.1815 139.678 75.9634 144.038 75.9634C144.438 75.9634 144.832 75.9838 145.223 76.0208C151.653 76.6196 156.702 82.0426 156.702 88.6256H156.702ZM164.887 88.6256C164.887 78.4481 157.553 69.9562 147.894 68.1424L171 0H61.7809L84.9227 68.2802C75.5989 70.3548 68.605 78.686 68.605 88.625C68.605 96.0881 72.5494 102.643 78.4608 106.327C75.6174 110.563 72.2458 114.549 68.3818 118.194C62.2535 123.975 55.4268 128.359 48.0668 131.243C40.6533 126.587 37.5197 117.805 40.7739 110.156L41.029 109.557L41.5074 108.432C49.6499 105.592 55.5097 97.8426 55.5097 88.7455C55.5097 77.2504 46.1572 67.8988 34.6615 67.8988C23.1659 67.8988 13.8121 77.2504 13.8121 88.7455C13.8121 94.5473 16.1976 99.8012 20.0361 103.584C19.3201 105.101 18.5934 106.613 17.8559 108.119C14.346 115.326 10.3684 123.496 8.86379 132.568C5.87619 150.585 10.6956 164.988 22.4349 173.122C29.5582 178.059 36.7925 180 44.0721 180C57.7791 180 71.6456 173.114 85.2078 166.378C94.9749 161.528 105.075 156.512 115.051 154.051C118.763 153.136 122.583 152.585 126.627 152.002C134.646 150.845 142.938 149.649 150.283 145.396C158.798 140.465 164.626 132.193 166.274 122.703C167.688 114.555 165.986 106.395 161.834 99.4741C163.835 96.2093 164.891 92.454 164.887 88.625V88.6256Z" fill="white"/>
</svg>