<svg width="180" height="180" viewBox="0 0 180 180" fill="none" xmlns="http://www.w3.org/2000/svg">
<path d="M180 0H0V180H180V0Z" fill="#F7DF1E"/>
<path d="M120.914 140.626C124.54 146.546 129.257 150.897 137.6 150.897C144.609 150.897 149.086 147.394 149.086 142.554C149.086 136.754 144.486 134.7 136.771 131.326L132.543 129.511C120.337 124.311 112.229 117.797 112.229 104.026C112.229 91.34 121.894 81.6829 137 81.6829C147.754 81.6829 155.486 85.4257 161.057 95.2257L147.886 103.683C144.986 98.4829 141.857 96.4343 137 96.4343C132.046 96.4343 128.906 99.5771 128.906 103.683C128.906 108.757 132.049 110.811 139.306 113.954L143.534 115.766C157.906 121.929 166.02 128.211 166.02 142.337C166.02 157.566 154.057 165.909 137.991 165.909C122.283 165.909 112.134 158.423 107.169 148.611L120.914 140.626ZM61.1628 142.091C63.82 146.806 66.2371 150.791 72.0485 150.791C77.6057 150.791 81.1114 148.617 81.1114 140.163V82.6486H98.0257V140.391C98.0257 157.906 87.7571 165.877 72.7685 165.877C59.2257 165.877 51.3828 158.869 47.3943 150.427L61.1628 142.091Z" fill="black"/>
</svg>