<svg width="180" height="180" viewBox="0 0 180 180" fill="none" xmlns="http://www.w3.org/2000/svg">
<path d="M89.8619 0.491699L94.6653 9.51352C95.7453 11.1784 96.9152 12.652 98.2932 14.0244C102.333 18.0141 106.099 22.2722 109.565 26.7697C117.704 37.4564 123.193 49.3243 127.114 62.1596C129.465 70.0002 130.742 78.0434 130.837 86.1765C131.231 110.492 122.895 131.37 106.089 148.722C103.355 151.473 100.402 153.998 97.2583 156.27C95.5934 156.27 94.806 154.993 94.1198 153.818C92.8701 151.638 92.0385 149.244 91.6674 146.759C91.0769 143.817 90.6888 140.876 90.88 137.838V136.466C90.745 136.173 89.277 1.18352 89.8619 0.491699Z" fill="#599636"/>
<path d="M89.8619 0.193503C89.665 -0.200218 89.4682 0.0978846 89.2713 0.28912C89.3669 2.25772 88.6807 4.01259 87.6064 5.68872C86.4253 7.3536 84.8616 8.63038 83.2924 10.0028C74.5743 17.551 67.7123 26.6684 62.217 36.8658C54.9051 50.5898 51.1366 65.298 50.0679 80.7825C49.5786 86.3677 51.834 106.076 53.5945 111.763C58.3979 126.859 67.0261 139.509 78.2021 150.488C80.9469 153.132 83.883 155.584 86.9202 157.941C87.8033 157.941 87.8989 157.153 88.1014 156.568C88.4886 155.316 88.7837 154.038 88.9845 152.743L90.9531 138.041L89.8619 0.193503Z" fill="#6CAC48"/>
<path d="M94.6652 162.243C94.8621 159.993 95.942 158.126 97.1176 156.264C95.9364 155.775 95.059 154.802 94.3728 153.716C93.7811 152.689 93.2913 151.605 92.9104 150.482C91.538 146.365 91.2455 142.045 90.8518 137.838V135.29C90.3624 135.684 90.2612 139.014 90.2612 139.509C89.975 143.955 89.3849 148.377 88.4951 152.743C88.2026 154.509 88.0057 156.27 86.9202 157.839C86.9202 158.036 86.9202 158.233 87.0158 158.525C88.7819 163.722 89.2656 169.015 89.5637 174.409V176.378C89.5637 178.729 89.4681 178.234 91.4198 179.021C92.2073 179.314 93.0847 179.415 93.8722 180C94.4628 180 94.5584 179.511 94.5584 179.117L94.2659 175.883V166.861C94.1703 165.286 94.4628 163.722 94.6596 162.249L94.6652 162.243Z" fill="#C2BFBF"/>
</svg>
