<svg width="180" height="180" viewBox="0 0 180 180" fill="none" xmlns="http://www.w3.org/2000/svg">
<path d="M177.537 107.824C176.485 104.646 173.73 102.432 170.166 101.901C168.486 101.651 166.562 101.757 164.285 102.226C160.316 103.043 157.372 103.354 155.223 103.414C163.334 89.7513 169.929 74.1713 173.726 59.5053C179.866 35.7907 176.585 24.9872 172.751 20.1006C162.605 7.16622 147.802 0.217758 129.943 0.00514756C120.416 -0.11107 112.053 1.76551 107.69 3.115C103.628 2.39992 99.2604 2.00068 94.6775 1.92684C86.0867 1.79012 78.4964 3.65849 72.0106 7.49847C68.42 6.28707 62.6571 4.57935 56.0021 3.48963C40.35 0.926003 27.7348 2.92358 18.5074 9.427C7.33394 17.3011 2.15425 30.982 3.11221 50.0896C3.41645 56.1562 6.81796 74.6143 12.1738 92.1195C15.2518 102.181 18.5341 110.537 21.9295 116.956C26.7446 126.058 31.8969 131.419 37.681 133.344C40.9228 134.421 46.8131 135.176 53.0083 130.028C53.7936 130.977 54.8413 131.92 56.2317 132.796C57.9975 133.907 60.1567 134.814 62.3131 135.353C70.0844 137.291 77.3637 136.806 83.5739 134.089C83.6123 135.191 83.6418 136.244 83.6665 137.153C83.7076 138.628 83.7487 140.074 83.8028 141.426C84.1708 150.569 84.7943 157.678 86.6417 162.652C86.7432 162.926 86.8795 163.343 87.0234 163.785C87.9451 166.6 89.4862 171.313 93.4071 175.004C97.4671 178.828 102.378 180 106.876 180C109.132 180 111.284 179.705 113.172 179.301C119.901 177.862 127.543 175.671 133.072 167.817C138.299 160.393 140.84 149.21 141.3 131.591C141.359 131.093 141.414 130.617 141.467 130.164L141.576 129.233L142.808 129.341L143.125 129.362C149.979 129.674 158.359 128.224 163.506 125.838C167.573 123.956 180.605 117.091 177.537 107.824Z" fill="black"/>
<path d="M165.818 109.626C145.439 113.82 144.038 106.936 144.038 106.936C165.554 75.0837 174.549 34.6514 166.788 24.7558C145.611 -2.23755 108.955 10.5287 108.343 10.8595L108.146 10.8951C104.12 10.0611 99.6141 9.56473 94.5495 9.48201C85.329 9.33161 78.3341 11.8939 73.0263 15.9096C73.0263 15.9096 7.63415 -10.9669 10.6759 49.7112C11.3228 62.6196 29.2212 147.384 50.569 121.781C58.3718 112.419 65.9115 104.503 65.9115 104.503C69.6556 106.985 74.1384 108.251 78.8377 107.796L79.203 107.487C79.0892 108.649 79.1413 109.786 79.3489 111.132C73.8492 117.263 75.4657 118.339 64.4718 120.597C53.347 122.884 59.8821 126.956 64.149 128.021C69.3219 129.311 81.2888 131.139 89.3746 119.846L89.0526 121.135C91.2069 122.857 92.72 132.335 92.4664 140.927C92.2129 149.519 92.0436 155.418 93.741 160.026C95.4397 164.634 97.1315 175.001 111.585 171.912C123.66 169.33 129.919 162.639 130.79 151.478C131.407 143.544 132.806 144.717 132.893 137.623L134.015 134.265C135.308 123.509 134.221 120.039 141.66 121.653L143.469 121.812C148.944 122.06 156.112 120.932 160.319 118.982C169.376 114.789 174.748 107.786 165.817 109.626H165.818Z" fill="#336791"/>
<path d="M76.8539 55.4845C75.0175 55.2295 73.3544 55.4654 72.5129 56.1011C72.0401 56.4587 71.8935 56.873 71.8537 57.158C71.7482 57.9134 72.2786 58.7488 72.6048 59.1795C73.5271 60.3991 74.8743 61.2372 76.2077 61.4218C76.401 61.4492 76.5935 61.4615 76.7847 61.4615C79.0083 61.4615 81.0304 59.7339 81.2086 58.459C81.4313 56.862 79.1077 55.7976 76.8539 55.4852V55.4845ZM137.692 55.5351C137.517 54.2834 135.284 53.9265 133.165 54.2205C131.049 54.5144 128.998 55.4674 129.169 56.7219C129.306 57.6974 131.072 59.3627 133.162 59.3627C133.339 59.3627 133.517 59.3511 133.696 59.3258C135.091 59.133 136.115 58.2491 136.602 57.7398C137.342 56.9632 137.771 56.0977 137.692 55.5351Z" fill="white"/>
<path d="M172.599 109.15C171.822 106.805 169.321 106.051 165.166 106.907C152.828 109.448 148.41 107.688 146.959 106.622C156.549 92.047 164.438 74.4284 168.694 57.9903C170.71 50.2037 171.824 42.9722 171.915 37.0779C172.016 30.6086 170.911 25.8546 168.633 22.9506C159.45 11.2433 145.971 4.9634 129.656 4.79113C118.439 4.66534 108.962 7.52909 107.125 8.33441C103.256 7.37459 99.0386 6.78529 94.4468 6.71009C86.0266 6.57405 78.748 8.58531 72.7221 12.6851C70.1045 11.7129 63.3398 9.3961 55.0669 8.06643C40.7647 5.76941 29.3993 7.50995 21.2889 13.2422C11.6113 20.0827 7.14351 32.3102 8.00896 49.5843C8.30019 55.3959 11.6195 73.2744 16.8574 90.396C23.7523 112.931 31.2474 125.689 39.1331 128.313C40.0561 128.62 41.1203 128.835 42.2941 128.835C45.1707 128.835 48.6977 127.541 52.3671 123.14C56.8428 117.784 61.4726 112.557 66.2507 107.467C69.3507 109.127 72.7563 110.054 76.2394 110.147C76.2462 110.238 76.2551 110.329 76.2634 110.419C75.6638 111.132 75.0767 111.856 74.5023 112.59C72.0889 115.646 71.5866 116.283 63.8181 117.878C61.6082 118.334 55.7392 119.54 55.6528 123.645C55.5596 128.129 62.5908 130.013 63.3919 130.212C66.1835 130.91 68.8731 131.254 71.4379 131.254C77.6756 131.254 83.1651 129.208 87.552 125.251C87.417 141.238 88.0851 156.992 90.0092 161.792C91.5853 165.721 95.4349 175.324 107.595 175.323C109.38 175.323 111.343 175.116 113.504 174.654C126.195 171.94 131.707 166.344 133.838 154.006C134.979 147.413 136.937 131.668 137.858 123.222C139.801 123.827 142.303 124.104 145.008 124.103C150.649 124.103 157.158 122.908 161.24 121.017C165.825 118.893 174.1 113.679 172.599 109.15ZM142.376 52.0796C142.335 54.5728 141.991 56.8363 141.626 59.199C141.233 61.7401 140.828 64.3673 140.726 67.5564C140.625 70.6602 141.013 73.8869 141.389 77.0077C142.148 83.3108 142.927 89.7999 139.912 96.2029C139.411 95.3173 138.964 94.402 138.575 93.4622C138.201 92.5557 137.387 91.0995 136.259 89.0841C131.874 81.2387 121.606 62.8667 126.863 55.3699C128.428 53.1386 132.402 50.8443 142.376 52.0796ZM130.286 9.83978C144.905 10.1618 156.469 15.6179 164.656 26.0556C170.936 34.0617 164.021 70.4906 144.003 101.918C143.802 101.663 143.599 101.408 143.396 101.154L143.143 100.839C148.315 92.3157 147.304 83.883 146.404 76.4068C146.034 73.3386 145.684 70.4407 145.773 67.7185C145.865 64.8335 146.247 62.3588 146.617 59.966C147.072 57.0175 147.534 53.9664 147.407 50.3698C147.502 49.9925 147.54 49.5467 147.49 49.0176C147.165 45.5687 143.218 35.2464 135.173 25.9039C130.773 20.7937 124.355 15.0751 115.593 11.218C119.362 10.4386 124.516 9.71194 130.286 9.83978ZM48.4839 119.919C44.441 124.769 41.6493 123.839 40.7311 123.534C34.749 121.543 27.8075 108.929 21.6877 88.9255C16.3922 71.6172 13.2976 54.2126 13.0523 49.3321C12.2794 33.8969 16.0297 23.1399 24.1997 17.3591C37.4961 7.95226 59.3565 13.5827 68.1406 16.4382C68.0145 16.5627 67.8829 16.6789 67.7582 16.8054C53.3436 31.3285 53.6855 56.1418 53.7211 57.6588C53.7198 58.244 53.7691 59.0725 53.8363 60.2121C54.0843 64.3857 54.5462 72.1532 53.3127 80.9496C52.167 89.1238 54.6928 97.1244 60.2412 102.9C60.8106 103.492 61.4091 104.055 62.0344 104.588C59.5648 107.226 54.1974 113.062 48.4839 119.919ZM63.8873 99.4146C59.4155 94.759 57.3844 88.2836 58.3143 81.6469C59.6162 72.3549 59.1359 64.262 58.8775 59.9141C58.8412 59.3056 58.809 58.7724 58.7905 58.352C60.8962 56.4891 70.6547 51.2729 77.614 52.8637C80.7894 53.5891 82.7245 55.7466 83.5289 59.4574C87.6924 78.6696 84.0799 86.6771 81.1772 93.1121C80.579 94.4377 80.0137 95.6908 79.5313 96.987L79.1571 97.9892C78.2101 100.523 77.3289 102.879 76.7828 105.115C72.0286 105.102 67.4039 103.075 63.8873 99.4139V99.4146ZM64.6171 125.324C63.2288 124.978 61.9803 124.378 61.2478 123.879C61.8597 123.592 62.9485 123.201 64.837 122.813C73.9761 120.936 75.3876 119.611 78.4698 115.707C79.1763 114.811 79.9774 113.797 81.0868 112.561L81.0881 112.56C82.7402 110.714 83.4961 111.027 84.8665 111.594C85.9773 112.052 87.0593 113.441 87.4978 114.97C87.7055 115.692 87.9384 117.062 87.1758 118.128C80.7373 127.122 71.355 127.007 64.6171 125.324ZM112.446 169.728C101.266 172.118 97.307 166.427 94.6983 159.92C93.0147 155.72 92.1869 136.779 92.7742 115.862C92.7817 115.584 92.742 115.315 92.6652 115.062C92.5966 114.563 92.4921 114.069 92.3527 113.584C91.4798 110.541 89.3521 107.995 86.7996 106.939C85.7854 106.52 83.9243 105.751 81.6877 106.322C82.1646 104.361 82.9917 102.147 83.8887 99.7496L84.2649 98.7412C84.6884 97.6043 85.2201 96.4264 85.782 95.1795C88.8197 88.447 92.9797 79.2254 88.4647 58.393C86.7735 50.59 81.1258 46.7794 72.5645 47.6647C67.432 48.1945 62.7361 50.2604 60.394 51.4452C59.8903 51.6995 59.4298 51.9456 58.9995 52.1849C59.6532 44.3231 62.1228 29.6304 71.3612 20.3343C77.1782 14.4824 84.9248 11.5919 94.3632 11.7478C112.961 12.0513 124.886 21.573 131.617 29.508C137.417 36.345 140.557 43.2327 141.81 46.9476C132.385 45.9911 125.975 47.8472 122.725 52.4823C115.656 62.5645 126.593 82.1329 131.849 91.5377C132.813 93.2612 133.645 94.7508 133.907 95.3839C135.619 99.5226 137.835 102.286 139.453 104.303C139.949 104.921 140.43 105.52 140.796 106.044C137.941 106.865 132.813 108.762 133.281 118.245C132.904 123.003 130.224 145.28 128.862 153.15C127.065 163.549 123.23 167.421 112.446 169.729V169.728ZM159.113 116.448C156.194 117.8 151.309 118.813 146.669 119.032C141.543 119.271 138.934 118.459 138.32 117.959C138.032 112.05 140.236 111.432 142.57 110.779C142.936 110.676 143.294 110.576 143.639 110.455C143.854 110.63 144.089 110.803 144.346 110.972C148.466 113.685 155.814 113.977 166.188 111.841L166.301 111.818C164.902 113.124 162.508 114.875 159.113 116.448Z" fill="white"/>
</svg>