<svg width="180" height="180" viewBox="0 0 180 180" fill="none" xmlns="http://www.w3.org/2000/svg">
<path d="M161.231 34.991C150.351 20.9018 135.537 10.3556 118.662 4.68629C101.788 -0.983056 83.6112 -1.52092 66.4312 3.14071C49.2511 7.80234 33.8393 17.4541 22.1449 30.8752C10.4506 44.2964 2.99896 60.8842 0.732508 78.5406C-1.53395 96.197 1.48656 114.129 9.41203 130.069C17.3375 146.008 29.8119 159.24 45.2576 168.089C60.7033 176.939 78.4265 181.009 96.1857 179.786C113.945 178.562 130.942 172.099 145.028 161.215C184.347 130.829 191.603 74.3235 161.228 34.991H161.231Z" fill="#FF6C37"/>
<path d="M120.354 57.3448L82.4057 95.5945L71.6818 84.5696C109.031 47.2199 112.78 50.5949 120.357 57.3448H120.354Z" fill="white"/>
<path d="M82.4057 96.6402C82.0696 96.632 81.7487 96.4986 81.5058 96.2662L70.7058 85.4663C70.4627 85.2146 70.3268 84.8783 70.3268 84.5283C70.3268 84.1783 70.4627 83.842 70.7058 83.5903C107.53 46.7666 112.555 48.4907 121.254 56.3656C121.4 56.4821 121.517 56.631 121.595 56.8004C121.673 56.9698 121.71 57.1551 121.704 57.3415C121.761 57.7071 121.62 58.0812 121.33 58.3175L83.3817 96.269C83.1156 96.5129 82.7667 96.6467 82.4057 96.643V96.6402ZM73.5549 84.5663L82.4057 93.4171L118.405 57.4175C117.162 55.8597 115.389 54.8149 113.424 54.4828C111.459 54.1508 109.44 54.5547 107.755 55.6175C101.23 58.5425 90.7307 67.4664 73.5549 84.5663Z" fill="#FF6C37"/>
<path d="M93.2814 106.169L82.9314 95.5939L120.88 58.0925C131.081 68.0683 115.93 84.7181 93.2814 106.166V106.169Z" fill="white"/>
<path d="M93.2816 107.519C92.9496 107.492 92.6345 107.362 92.3816 107.145L81.8067 96.7949C81.6481 96.4103 81.6481 95.9786 81.8067 95.594C81.6943 95.2784 81.6943 94.9337 81.8067 94.6181L119.755 56.6695C120.019 56.4215 120.368 56.2834 120.73 56.2834C121.092 56.2834 121.441 56.4215 121.705 56.6695C122.933 57.8006 123.904 59.1831 124.551 60.723C125.198 62.2629 125.506 63.924 125.454 65.5934C125.454 75.7183 113.903 88.4672 94.2547 107.069C93.9922 107.329 93.6468 107.488 93.2788 107.519H93.2816ZM84.8807 95.594L93.3547 104.065C108.354 89.8903 122.68 75.2655 122.754 65.3656C122.835 63.2669 122.141 61.2116 120.805 59.5916L84.8807 95.594Z" fill="#FF6C37"/>
<path d="M71.9799 84.7943L79.4807 92.2952C79.5286 92.3374 79.567 92.3893 79.5932 92.4475C79.6195 92.5057 79.6331 92.5688 79.6331 92.6327C79.6331 92.6965 79.6195 92.7596 79.5932 92.8178C79.567 92.876 79.5286 92.9279 79.4807 92.9702L63.655 96.3451C63.3355 96.4141 63.0023 96.3767 62.706 96.2388C62.4097 96.1008 62.1666 95.8699 62.0138 95.581C61.8609 95.2922 61.8066 94.9612 61.8592 94.6387C61.9118 94.3161 62.0683 94.0196 62.305 93.7942L71.5299 84.6453C71.5299 84.6453 71.8308 84.6453 71.9799 84.7943Z" fill="white"/>
<path d="M63.2807 97.8441C62.7807 97.8378 62.2907 97.7034 61.8574 97.4538C61.4241 97.2042 61.062 96.8476 60.8058 96.4182C60.5174 95.8742 60.4128 95.2516 60.5076 94.6432C60.6024 94.0349 60.8915 93.4736 61.3317 93.0432L70.4807 83.8183C70.8106 83.5234 71.2376 83.3604 71.6802 83.3604C72.1227 83.3604 72.5497 83.5234 72.8797 83.8183L80.3805 91.3192C80.8249 91.741 80.9993 92.3795 80.8305 92.9701C80.6618 93.5607 80.1668 94.0304 79.5565 94.171L63.7307 97.546L63.2807 97.8441ZM71.6816 86.4451L63.2076 94.9191L77.2334 91.9182L71.6816 86.4451Z" fill="#FF6C37"/>
<path d="M140.531 36.2679C135.103 31.0311 126.576 30.8117 120.883 35.7532C115.19 40.6947 114.217 49.1772 118.65 55.2802C123.082 61.3833 131.438 63.0933 137.907 59.2177L127.706 49.0169L140.531 36.2679Z" fill="white"/>
<path d="M130.406 62.6655C127.288 62.6256 124.25 61.6687 121.671 59.9143C119.092 58.1599 117.087 55.6855 115.905 52.7993C114.724 49.9154 114.414 46.7484 115.014 43.6901C115.613 40.6319 117.097 37.8166 119.28 35.5926C122.283 32.645 126.322 30.9937 130.53 30.9937C134.738 30.9937 138.777 32.645 141.78 35.5926C142.067 35.8345 142.23 36.1916 142.23 36.5685C142.229 36.7539 142.189 36.937 142.111 37.1054C142.033 37.2738 141.921 37.4235 141.78 37.5444L129.63 49.0194L138.855 58.0952C139.004 58.238 139.117 58.4151 139.182 58.6112C139.247 58.8073 139.263 59.0164 139.229 59.2202C139.207 59.4169 139.142 59.6062 139.038 59.7749C138.935 59.9435 138.795 60.0873 138.63 60.1962C136.152 61.7452 133.303 62.6 130.381 62.6711L130.406 62.6655ZM130.406 33.5648C125.062 33.5929 120.281 36.8076 118.276 41.721C116.271 46.6344 117.362 52.2903 121.108 56.0646C122.971 57.9388 125.357 59.2066 127.953 59.7019C130.55 60.1972 133.235 59.897 135.657 58.8405L126.806 49.9897C126.666 49.8772 126.552 49.7344 126.474 49.5721C126.396 49.4097 126.355 49.2319 126.355 49.0517C126.355 48.8716 126.396 48.6937 126.474 48.5313C126.552 48.369 126.666 48.2263 126.806 48.1138L138.506 36.3379C136.18 34.5554 133.336 33.5808 130.406 33.562V33.5648Z" fill="#FF6C37"/>
<path d="M140.756 36.4927L127.931 49.2416L138.132 59.4424C139.159 58.853 140.115 58.1481 140.981 57.3415C143.655 54.5156 145.126 50.7615 145.084 46.8716C145.042 42.9817 143.49 39.2602 140.756 36.4927Z" fill="white"/>
<path d="M137.904 60.5679C137.736 60.577 137.567 60.5481 137.412 60.4833C137.256 60.4186 137.117 60.3196 137.004 60.1938L126.803 49.9929C126.663 49.8804 126.549 49.7377 126.471 49.5753C126.393 49.413 126.352 49.2351 126.352 49.055C126.352 48.8748 126.393 48.697 126.471 48.5346C126.549 48.3722 126.663 48.2295 126.803 48.117L139.552 35.593C139.675 35.4074 139.843 35.2551 140.039 35.1497C140.235 35.0444 140.455 34.9893 140.677 34.9893C140.9 34.9893 141.119 35.0444 141.316 35.1497C141.512 35.2551 141.679 35.4074 141.802 35.593C143.299 37.0595 144.488 38.8098 145.3 40.7415C146.111 42.6733 146.53 44.7476 146.53 46.8429C146.53 48.9383 146.111 51.0126 145.3 52.9443C144.488 54.8761 143.299 56.6264 141.802 58.0929C140.919 59.0293 139.909 59.8369 138.801 60.4919C138.522 60.6325 138.2 60.6597 137.901 60.5679H137.904ZM129.655 49.0198L138.129 57.4938C138.712 57.0852 139.264 56.634 139.78 56.1438C142.271 53.6595 143.674 50.288 143.681 46.7698C143.687 43.6214 142.539 40.5798 140.455 38.2199L129.655 49.0198Z" fill="#FF6C37"/>
<path d="M121.929 58.9197C120.914 57.9658 119.572 57.4348 118.179 57.4348C116.785 57.4348 115.444 57.9658 114.428 58.9197L80.4565 92.8158L86.0815 98.5167L122.005 67.0169C122.553 66.4918 122.988 65.8602 123.282 65.1608C123.577 64.4615 123.725 63.7093 123.718 62.9505C123.711 62.1917 123.548 61.4424 123.241 60.7487C122.933 60.055 122.487 59.4316 121.929 58.9169V58.9197Z" fill="white"/>
<path d="M85.7807 99.8693C85.4446 99.861 85.1237 99.7276 84.8807 99.4952L79.1798 93.7943C78.9367 93.5426 78.8008 93.2064 78.8008 92.8564C78.8008 92.5064 78.9367 92.1701 79.1798 91.9184L113.155 58.0928C114.133 57.1154 115.383 56.4545 116.741 56.1959C118.1 55.9373 119.505 56.0929 120.774 56.6425C122.044 57.1921 123.118 58.1103 123.859 59.2781C124.601 60.4459 124.974 61.8094 124.93 63.1918C124.891 64.1301 124.666 65.0512 124.266 65.9012C123.867 66.7512 123.302 67.5129 122.604 68.1418L86.6807 99.6415C86.4194 99.8264 86.0983 99.9067 85.7807 99.8665V99.8693ZM81.8067 92.8156L85.5557 96.6406L120.804 65.9649C121.676 65.2055 122.197 64.1199 122.23 62.964C122.264 61.8081 121.809 60.6775 120.956 59.89C120.169 59.1063 119.104 58.6663 117.993 58.6663C116.883 58.6663 115.817 59.1063 115.03 59.89L81.8067 92.8156Z" fill="#FF6C37"/>
<path d="M54.1319 131.442C54.0359 131.573 53.9842 131.73 53.9842 131.892C53.9842 132.054 54.0359 132.212 54.1319 132.342L55.6309 138.867C55.691 139.251 55.6341 139.644 55.4675 139.996C55.301 140.347 55.0325 140.64 54.6972 140.836C54.3631 141.031 53.9755 141.116 53.5904 141.077C53.2052 141.038 52.8424 140.878 52.5541 140.619L42.2802 130.72L74.3057 98.4407H85.4065L92.9074 105.942C81.2067 116.172 68.1603 124.752 54.1319 131.442Z" fill="white"/>
<path d="M53.4569 142.467C52.6076 142.45 51.7694 142.101 51.2069 141.491L41.383 131.667C41.2423 131.554 41.1287 131.412 41.0506 131.249C40.9725 131.087 40.932 130.909 40.932 130.729C40.932 130.549 40.9725 130.371 41.0506 130.209C41.1287 130.046 41.2423 129.903 41.383 129.791L73.6308 97.4671C73.8114 97.2752 74.0473 97.1445 74.3058 97.0931H85.4798C85.7709 96.9901 86.0886 96.9901 86.3797 97.0931L93.8806 104.594C94.0233 104.725 94.1318 104.89 94.197 105.072C94.2621 105.255 94.2819 105.451 94.2547 105.643C94.26 105.829 94.2221 106.014 94.144 106.184C94.066 106.353 93.9498 106.502 93.8047 106.619L93.2056 107.145C81.4577 116.939 68.5328 125.228 54.731 131.819L56.1569 137.894C56.2671 138.362 56.2713 138.85 56.1692 139.32C56.0672 139.791 55.8613 140.232 55.5668 140.613C55.2722 140.994 54.8964 141.304 54.4666 141.521C54.0369 141.738 53.5642 141.857 53.0829 141.868L53.4569 142.467ZM44.3079 130.691L53.156 139.615C53.2384 139.688 53.345 139.729 53.4555 139.729C53.566 139.729 53.6726 139.688 53.755 139.615C53.8102 139.538 53.8399 139.446 53.8399 139.352C53.8399 139.258 53.8102 139.166 53.755 139.089L52.256 132.564C52.1378 132.096 52.1853 131.601 52.3904 131.164C52.5954 130.726 52.9454 130.374 53.381 130.165C66.8118 123.662 79.4035 115.552 90.8797 106.014L84.7288 99.8634H74.6799L44.3079 130.691Z" fill="#FF6C37"/>
<path d="M34.557 138.417L42.0578 130.916L53.6086 142.467L35.2348 141.193C34.9193 141.168 34.6197 141.045 34.3787 140.839C34.1378 140.634 33.9677 140.358 33.8929 140.051C33.8181 139.743 33.8422 139.42 33.962 139.127C34.0818 138.834 34.291 138.587 34.5598 138.42L34.557 138.417Z" fill="white"/>
<path d="M53.8309 143.592L35.5302 142.318C34.4446 142.217 33.5108 141.474 33.1284 140.481C32.7459 139.488 32.9793 138.31 33.7302 137.517L41.2311 130.016C41.4828 129.773 41.8191 129.637 42.169 129.637C42.519 129.637 42.8553 129.773 43.107 130.016L54.5818 141.491C54.7407 141.709 54.8263 141.971 54.8263 142.241C54.8263 142.51 54.7407 142.772 54.5818 142.99C54.4084 143.271 54.143 143.482 53.8309 143.589V143.592ZM35.5302 139.393L50.5291 140.369L42.2801 132.643L35.5302 139.393Z" fill="#FF6C37"/>
<path d="M86.4555 99.3459L71.3048 101.672L80.0796 92.9729L86.4555 99.3459Z" fill="white"/>
<path d="M71.3048 103.092C71.053 103.099 70.8048 103.031 70.5912 102.898C70.3777 102.764 70.2082 102.571 70.1038 102.342C69.9442 102.124 69.858 101.862 69.858 101.592C69.858 101.322 69.9442 101.06 70.1038 100.842L78.8027 92.0674C79.0666 91.8195 79.4151 91.6814 79.7772 91.6814C80.1394 91.6814 80.4879 91.8195 80.7518 92.0674L87.1304 98.4406C87.2578 98.6427 87.3254 98.8767 87.3254 99.1156C87.3254 99.3545 87.2578 99.5885 87.1304 99.7906C87.0678 100.037 86.9356 100.26 86.7495 100.433C86.5635 100.606 86.3315 100.722 86.0813 100.767L71.0826 103.092H71.3048ZM80.0796 94.9165L75.2056 99.7906L83.6064 98.5165L80.0796 94.9165Z" fill="#FF6C37"/>
<path d="M86.4555 99.3406L75.8807 100.691C75.5977 100.755 75.3016 100.726 75.0362 100.609C74.7707 100.492 74.5502 100.292 74.4072 100.039C74.2642 99.7867 74.2064 99.4949 74.2423 99.2069C74.2783 98.9189 74.406 98.6502 74.6067 98.4406L80.0825 92.9646L86.4555 99.3406Z" fill="white"/>
<path d="M75.5798 102.119C75.0896 102.115 74.6094 101.98 74.188 101.73C73.7667 101.479 73.4191 101.122 73.1807 100.693C72.8943 100.18 72.7833 99.5871 72.8645 99.0048C72.9457 98.4226 73.2148 97.8828 73.6307 97.4674L79.1066 91.9915C79.3705 91.7435 79.719 91.6054 80.0811 91.6054C80.4433 91.6054 80.7918 91.7435 81.0557 91.9915L87.4316 98.3674C87.6212 98.547 87.7546 98.7778 87.8156 99.0318C87.8767 99.2858 87.8628 99.552 87.7755 99.7982C87.6883 100.044 87.5315 100.26 87.3242 100.419C87.1169 100.578 86.8679 100.673 86.6075 100.693L76.1085 102.043L75.5798 102.119ZM75.5798 99.3433L83.5307 98.3674L80.0066 94.8433L75.5067 99.3433H75.5798ZM140.829 45.1186C140.688 44.882 140.465 44.7054 140.202 44.6225C139.939 44.5395 139.655 44.5559 139.403 44.6686C139.279 44.7316 139.169 44.8187 139.079 44.925C138.989 45.0313 138.922 45.1545 138.88 45.2874C138.797 45.5555 138.823 45.8458 138.953 46.0946C139.479 47.1999 139.333 48.5077 138.579 49.4696C138.486 49.5622 138.412 49.6733 138.364 49.7958C138.315 49.9183 138.293 50.0495 138.298 50.1811C138.301 50.4449 138.401 50.6983 138.579 50.8927C138.772 50.9687 138.986 50.9687 139.178 50.8927C139.353 50.9366 139.536 50.9317 139.708 50.8787C139.88 50.8256 140.035 50.7264 140.154 50.5917C140.772 49.8356 141.163 48.9202 141.282 47.9512C141.402 46.9823 141.245 45.9993 140.829 45.1158V45.1186Z" fill="#FF6C37"/>
</svg>