<svg width="181" height="181" viewBox="0 0 181 181" fill="none" xmlns="http://www.w3.org/2000/svg">
<path d="M0 0.000488281H180V180H0V0.000488281Z" fill="url(#paint0_linear_727_45)"/>
<path d="M14.3153 14.3147H165.686V165.686H14.3153V14.3147Z" fill="url(#paint1_linear_727_45)"/>
<path d="M43.4987 50.7322C43.4987 50.7322 54.8795 50.4277 64.2479 50.4277C73.7147 50.4277 80.4647 52.6927 84.9965 56.6728C89.3279 60.4339 92.2487 66.8455 92.2487 74.1444C92.2487 81.4432 90.0323 87.4155 86.0027 91.6147C80.7653 97.0336 74.6621 100.241 64.2479 100.685C61.3709 100.807 58.7081 100.837 58.7081 100.837V124.563H43.4981L43.4987 50.7322V50.7322ZM58.7075 87.6919C60.3599 87.8554 61.3955 87.7767 63.8447 87.7468C72.0035 87.6474 77.0381 82.6019 77.0381 74.9717C77.0381 68.1171 72.8867 62.4889 65.0543 62.1973C61.9325 62.0813 58.7075 62.1973 58.7075 62.1973V87.6919V87.6919Z" fill="url(#paint2_linear_727_45)"/>
<path d="M98.0531 108.034C101.118 109.947 108.352 112.811 113.283 112.811C118.32 112.811 120.401 111.006 120.401 108.191C120.401 105.373 118.758 102.412 112.514 100.272C101.45 96.4406 97.1777 91.8545 97.2887 85.4356C97.2887 75.0682 105.831 67.2947 119.085 67.2947C125.329 67.2947 130.317 69.3705 133.6 71.0594V83.502C131.188 82.1486 124.233 79.127 119.634 79.127C115.578 79.127 113.28 80.8172 113.28 83.6313C113.28 86.2233 115.362 87.5754 121.934 89.9429C132.119 93.5478 136.392 98.8416 136.5 106.954C136.5 117.208 128.727 125.361 113.28 124.866C107.978 124.697 102.105 122.566 98.0519 120.315L98.0531 108.034V108.034Z" fill="url(#paint3_linear_727_45)"/>
<defs>
<linearGradient id="paint0_linear_727_45" x1="43.743" y1="-9.39975" x2="114.658" y2="137.95" gradientUnits="userSpaceOnUse">
<stop stop-color="#A0CBFF"/>
<stop offset="0.394" stop-color="#A0CBFE"/>
<stop offset="0.583" stop-color="#8EC2FC"/>
<stop offset="0.784" stop-color="#83BCFB"/>
<stop offset="1" stop-color="#7FBAFB"/>
</linearGradient>
<linearGradient id="paint1_linear_727_45" x1="68.2349" y1="16.4478" x2="108.454" y2="147.872" gradientUnits="userSpaceOnUse">
<stop stop-color="#090058"/>
<stop offset="1" stop-color="#070033"/>
</linearGradient>
<linearGradient id="paint2_linear_727_45" x1="22.2821" y1="-1.51037" x2="93.1964" y2="145.838" gradientUnits="userSpaceOnUse">
<stop stop-color="#A0CBFF"/>
<stop offset="0.394" stop-color="#A0CBFE"/>
<stop offset="0.583" stop-color="#8EC2FC"/>
<stop offset="0.784" stop-color="#83BCFB"/>
<stop offset="1" stop-color="#7FBAFB"/>
</linearGradient>
<linearGradient id="paint3_linear_727_45" x1="61.5845" y1="-20.8703" x2="132.78" y2="127.062" gradientUnits="userSpaceOnUse">
<stop stop-color="#A0CBFF"/>
<stop offset="0.394" stop-color="#A0CBFE"/>
<stop offset="0.583" stop-color="#8EC2FC"/>
<stop offset="0.784" stop-color="#83BCFB"/>
<stop offset="1" stop-color="#7FBAFB"/>
</linearGradient>
</defs>
</svg>
