<svg width="180" height="180" viewBox="0 0 180 180" fill="none" xmlns="http://www.w3.org/2000/svg">
<path d="M90.152 105.869C98.9163 105.869 106.021 98.7644 106.021 90.0001C106.021 81.2358 98.9163 74.1309 90.152 74.1309C81.3876 74.1309 74.2827 81.2358 74.2827 90.0001C74.2827 98.7644 81.3876 105.869 90.152 105.869Z" fill="#61DAFB"/>
<path d="M90.1519 122.513C137.18 122.513 175.304 107.956 175.304 90.0001C175.304 72.0439 137.18 57.4875 90.1519 57.4875C43.1238 57.4875 5 72.0439 5 90.0001C5 107.956 43.1238 122.513 90.1519 122.513Z" stroke="#61DAFB" stroke-width="5"/>
<path d="M61.9951 106.256C85.5092 146.984 117.177 172.722 132.728 163.744C148.278 154.766 141.823 114.471 118.308 73.7437C94.7944 33.0162 63.1264 7.27818 47.5758 16.2563C32.0253 25.2344 38.4811 65.5287 61.9951 106.256Z" stroke="#61DAFB" stroke-width="5"/>
<path d="M61.9952 73.7436C38.4811 114.471 32.0254 154.766 47.5759 163.744C63.1264 172.722 94.7945 146.984 118.309 106.256C141.823 65.5286 148.278 25.2343 132.728 16.2562C117.177 7.27809 85.5092 33.0161 61.9952 73.7436Z" stroke="#61DAFB" stroke-width="5"/>
</svg>
