<svg width="181" height="181" viewBox="0 0 181 181" fill="none" xmlns="http://www.w3.org/2000/svg">
<path d="M1.71255 64.0595C1.71255 64.0595 -2.67158 60.8993 2.58937 56.6796L14.8467 45.7193C14.8467 45.7193 18.354 42.0293 22.0622 45.2443L135.173 130.881V171.946C135.173 171.946 135.118 178.394 126.843 177.682L1.71255 64.0595Z" fill="#2489CA"/>
<path d="M30.8669 90.5293L1.71246 117.035C1.71246 117.035 -1.28336 119.264 1.71246 123.246L15.2485 135.558C15.2485 135.558 18.4635 139.01 23.213 135.083L54.1211 111.646L30.8669 90.5293Z" fill="#1070B3"/>
<path d="M82.0519 90.7483L135.52 49.921L135.173 9.07548C135.173 9.07548 132.89 0.161066 125.272 4.80095L54.1213 69.5583L82.0519 90.7483Z" fill="#0877B9"/>
<path d="M126.843 177.737C129.948 180.915 133.712 179.874 133.712 179.874L175.379 159.342C180.713 155.706 179.964 151.194 179.964 151.194V28.5848C179.964 23.1959 174.447 21.3327 174.447 21.3327L138.333 3.92401C130.442 -0.953336 125.272 4.80084 125.272 4.80084C125.272 4.80084 131.921 0.0148276 135.173 9.07537V171.197C135.173 172.311 134.935 173.407 134.46 174.394C133.511 176.312 131.446 178.102 126.496 177.353L126.843 177.737Z" fill="#3C99D4"/>
</svg>
